<?xml version="1.0" encoding="UTF-8"?>
<svg version="1.1" xmlns="http://www.w3.org/2000/svg" width="630" height="747">
<path d="M0 0 C1.13237091 0.00270905 2.26474182 0.00541809 3.431427 0.00820923 C21.39671066 0.07319828 38.77220334 0.93836816 56.4375 4.4375 C57.38882812 4.61941895 58.34015625 4.80133789 59.3203125 4.98876953 C90.18039041 11.0684222 118.46580281 24.34261493 145.25 40.4375 C146.20479248 41.00678223 147.15958496 41.57606445 148.14331055 42.16259766 C154.66394096 46.13098826 160.56992274 50.56369503 166.4375 55.4375 C167.37980469 56.18257812 168.32210938 56.92765625 169.29296875 57.6953125 C177.40339017 64.18908376 184.92885039 71.26487283 192.4375 78.4375 C192.95376953 78.92508789 193.47003906 79.41267578 194.00195312 79.91503906 C201.66401041 87.16975952 208.15030117 95.0033515 214.4375 103.4375 C215.23124023 104.49662598 215.23124023 104.49662598 216.04101562 105.57714844 C233.14576218 128.50072475 246.43601728 152.71359142 255.56884766 179.85742188 C256.12575373 181.51154873 256.68749733 183.16405941 257.25537109 184.81445312 C263.88014748 204.11789332 268.12258262 224.06001621 269.4375 244.4375 C269.50453125 245.4363623 269.5715625 246.43522461 269.640625 247.46435547 C270.51721886 261.49196445 270.5092712 275.35930154 269.625 289.375 C269.5017334 291.33699341 269.5017334 291.33699341 269.37597656 293.33862305 C268.53703227 305.16637468 266.789317 316.69968259 264.125 328.25 C263.90626221 329.19866943 263.68752441 330.14733887 263.4621582 331.12475586 C256.72179017 359.74171459 245.36245009 387.69622648 229.4375 412.4375 C228.8501709 413.36054932 228.8501709 413.36054932 228.25097656 414.30224609 C220.3049155 426.73997665 211.48191255 438.358243 201.47265625 449.21484375 C199.63102366 451.22614691 197.8766381 453.28569672 196.125 455.375 C191.35218907 460.85818279 185.85211226 465.60588771 180.4375 470.4375 C179.75816406 471.05496094 179.07882812 471.67242188 178.37890625 472.30859375 C162.6299297 486.4318695 145.55985768 497.75094749 126.71728516 507.27783203 C124.62706285 508.34107426 122.5521975 509.428628 120.48046875 510.52734375 C99.54331446 521.50723957 77.04073889 529.10347454 53.875 533.6875 C53.12202637 533.83872314 52.36905273 533.98994629 51.59326172 534.14575195 C34.96948162 537.20802724 18.17327084 537.81705296 1.3125 537.75 C0.33059692 537.74784485 -0.65130615 537.7456897 -1.66296387 537.74346924 C-48.99504903 537.57731424 -92.22699295 525.38435547 -133.5625 502.4375 C-134.25408203 502.06044922 -134.94566406 501.68339844 -135.65820312 501.29492188 C-150.93977432 492.92475637 -164.56133286 482.48274956 -177.26953125 470.58203125 C-179.26087192 468.7196019 -181.29301756 466.94649146 -183.375 465.1875 C-194.32524865 455.60603243 -203.93276112 445.13082556 -212.5625 433.4375 C-213.09262695 432.72513184 -213.62275391 432.01276367 -214.16894531 431.27880859 C-224.32455629 417.59555213 -233.10221002 403.78135882 -240.5625 388.4375 C-241.58288679 386.45810307 -242.60370353 384.47892771 -243.625 382.5 C-257.36858372 354.75899329 -265.50646984 323.2959351 -267.5625 292.4375 C-267.62421387 291.52033203 -267.68592773 290.60316406 -267.74951172 289.65820312 C-269.67363873 259.09673746 -267.25090121 229.10691787 -259.5625 199.4375 C-259.27270264 198.31553223 -259.27270264 198.31553223 -258.97705078 197.17089844 C-248.23441643 156.47657815 -227.27425897 121.04296157 -200.02734375 89.3125 C-198.60909047 87.65824578 -197.19976136 85.99604627 -195.81640625 84.3125 C-192.65275519 80.47153611 -189.19777047 77.22624904 -185.39453125 74.015625 C-183.54341136 72.47490136 -183.54341136 72.47490136 -181.94921875 70.734375 C-180.5625 69.4375 -180.5625 69.4375 -178.5625 69.4375 C-178.33304687 68.86386719 -178.10359375 68.29023438 -177.8671875 67.69921875 C-175.092653 62.88947182 -169.88560341 59.7987129 -165.5625 56.4375 C-164.593125 55.67695313 -163.62375 54.91640625 -162.625 54.1328125 C-155.56030572 48.70276822 -148.20976372 43.99779488 -140.5625 39.4375 C-139.3635091 38.69965945 -138.16561496 37.9600341 -136.96875 37.21875 C-95.19026974 11.47958046 -48.89958288 -0.27587219 0 0 Z " fill="#FE861B" transform="translate(302.5625,103.5625)"/>
<path d="M0 0 C1.09868408 0.00902344 2.19736816 0.01804687 3.3293457 0.02734375 C22.23269534 0.4296913 37.47162745 8.00177005 50.6875 21.4375 C51.27144531 22.02273438 51.85539062 22.60796875 52.45703125 23.2109375 C56.03411993 27.06875972 58.30008392 31.25013758 60.51171875 36.0078125 C61.63388419 38.45843316 61.63388419 38.45843316 63.13671875 40.65625 C65.29898327 44.5341652 66.50905153 48.58120496 67.8125 52.8125 C68.20888672 54.05 68.20888672 54.05 68.61328125 55.3125 C71.54004874 64.67221329 71.86989157 73.48779409 71.875 83.25 C71.88724609 84.47009766 71.89949219 85.69019531 71.91210938 86.94726562 C71.92355795 94.0491984 71.4075858 100.54848939 69.6875 107.4375 C69.43871094 108.57316406 69.18992187 109.70882812 68.93359375 110.87890625 C64.8027116 126.82371222 56.9269811 140.36705761 44.6875 151.4375 C42.33203125 152.78515625 42.33203125 152.78515625 40.6875 153.4375 C40.6875 154.0975 40.6875 154.7575 40.6875 155.4375 C38.46795349 156.81007477 36.23914591 158.16009151 34 159.5 C33.37416016 159.88994141 32.74832031 160.27988281 32.10351562 160.68164062 C29.32869236 162.32328999 27.26603697 163.44002636 24.00390625 163.42578125 C21.18470284 162.22298452 19.49320597 160.71171563 17.3125 158.5625 C11.01741969 152.78510721 5.8369649 150.89247506 -2.66796875 151.1484375 C-8.7400172 151.81214738 -13.44192311 154.84255039 -18.3125 158.4375 C-18.6425 159.0975 -18.9725 159.7575 -19.3125 160.4375 C-19.9725 160.4375 -20.6325 160.4375 -21.3125 160.4375 C-21.6425 161.4275 -21.9725 162.4175 -22.3125 163.4375 C-24.6225 162.7775 -26.9325 162.1175 -29.3125 161.4375 C-29.3125 160.7775 -29.3125 160.1175 -29.3125 159.4375 C-30.18841797 159.26734375 -30.18841797 159.26734375 -31.08203125 159.09375 C-40.47156635 156.33115473 -50.66065947 144.78143431 -55.38916016 136.56713867 C-69.56220987 109.59958246 -73.57787639 80.77556147 -64.56713867 51.44458008 C-62.47746437 44.99081669 -59.9165656 39.17021684 -56.3125 33.4375 C-55.9 32.72980469 -55.4875 32.02210938 -55.0625 31.29296875 C-52.5616449 27.08059093 -49.88524953 23.83161205 -46.3125 20.4375 C-45.2296875 19.014375 -45.2296875 19.014375 -44.125 17.5625 C-33.45585859 4.54480545 -16.07815289 -0.15863744 0 0 Z " fill="#FE861B" transform="translate(375.3125,262.5625)"/>
<path d="M0 0 C1.22203125 -0.020625 2.4440625 -0.04125 3.703125 -0.0625 C21.50218065 -0.13791973 37.89842923 4.51724191 50.75 17.25 C67.38927101 36.48465124 72.2672976 62.66416959 70.96582031 87.50927734 C69.9145006 100.86008627 67.96322336 114.26880056 61.75 126.25 C61.46769531 126.930625 61.18539062 127.61125 60.89453125 128.3125 C56.35392103 138.88593976 47.5171456 147.50272094 37.75 153.25 C37.08355469 153.64703125 36.41710937 154.0440625 35.73046875 154.453125 C24.83739896 160.39883316 13.64684625 160.64519766 1.5625 160.4375 C0.02279964 160.42241603 -1.51691511 160.40873423 -3.05664062 160.39648438 C-6.78806515 160.36379554 -10.51893721 160.31222161 -14.25 160.25 C-14.27332717 139.53624779 -14.29097828 118.82249775 -14.30181217 98.10873508 C-14.30697552 88.49167505 -14.31401895 78.87462316 -14.32543945 69.25756836 C-14.33538512 60.87848831 -14.34185315 52.49941416 -14.34408849 44.12032837 C-14.3453958 39.68083875 -14.34848292 35.24136601 -14.35573006 30.80188179 C-14.36248842 26.62822727 -14.36461734 22.45459667 -14.36310768 18.28093719 C-14.36338409 16.7445888 -14.36539031 15.20823966 -14.36920547 13.67189598 C-14.37413987 11.58340383 -14.37299925 9.49500343 -14.37025452 7.4065094 C-14.37117631 6.23491052 -14.3720981 5.06331163 -14.37304783 3.85620975 C-14.07514197 -2.45357369 -4.83205996 0.01964252 0 0 Z " fill="#FE861B" transform="translate(165.25,265.75)"/>
<path d="M0 0 C1.12019531 -0.00773437 2.24039063 -0.01546875 3.39453125 -0.0234375 C29.93783501 0.03779273 53.69350266 9.86441672 72.68359375 28.37890625 C74.40014222 30.27131492 75.96104972 32.21139054 77.5 34.25 C78.06847656 34.94867188 78.63695312 35.64734375 79.22265625 36.3671875 C93.40062937 54.87645351 96.27248841 78.62031422 94.5 101.25 C93.73831083 106.77469824 92.27687134 111.96287585 90.5 117.25 C90.23445312 118.13042969 89.96890625 119.01085937 89.6953125 119.91796875 C82.63162275 140.53721549 64.83633431 156.94722083 45.93359375 166.7109375 C39.95321572 169.39156201 33.77043503 171.36800221 27.5 173.25 C30.61820739 179.92559891 35.45040004 185.63814135 42.5 188.25 C47.13610983 189.43065585 51.79490142 190.38859499 56.5 191.25 C56.5 192.24 56.5 193.23 56.5 194.25 C44.23205058 194.9211948 32.64355074 193.85075328 22.5 186.25 C20.1640625 183.9609375 20.1640625 183.9609375 18.125 181.625 C17.43664062 180.84898437 16.74828125 180.07296875 16.0390625 179.2734375 C14.5 177.25 14.5 177.25 14.5 175.25 C13.74605957 175.27094727 12.99211914 175.29189453 12.21533203 175.31347656 C-15.8319334 175.98807969 -42.70922048 172.60555732 -64.26171875 152.69921875 C-66.5 150.25 -66.5 150.25 -67.5 147.25 C-68.83220244 146.58107632 -70.16570119 145.9147322 -71.5 145.25 C-75.91322383 140.49804188 -79.59419629 135.03959376 -82.5 129.25 C-82.9846875 128.30382812 -83.469375 127.35765625 -83.96875 126.3828125 C-84.4946875 125.30773437 -85.020625 124.23265625 -85.5625 123.125 C-86.04847656 122.13242187 -86.53445313 121.13984375 -87.03515625 120.1171875 C-91.15612336 110.0975538 -91.96587868 99.8435861 -91.83618164 89.14672852 C-91.81240127 87.05381095 -91.81567382 84.96216115 -91.82226562 82.86914062 C-91.80553971 75.46152995 -91.37938328 68.43942097 -89.5 61.25 C-88.84 61.25 -88.18 61.25 -87.5 61.25 C-87.35498047 59.73599609 -87.35498047 59.73599609 -87.20703125 58.19140625 C-86.62031819 54.10702021 -85.08581515 50.85811794 -83.1875 47.1875 C-82.29611328 45.43759766 -82.29611328 45.43759766 -81.38671875 43.65234375 C-79.55538247 40.34987191 -77.74089366 37.28560234 -75.5 34.25 C-74.84 34.25 -74.18 34.25 -73.5 34.25 C-73.1596875 33.1671875 -73.1596875 33.1671875 -72.8125 32.0625 C-66.10172812 17.68227455 -44.92674455 8.91536463 -30.84765625 3.51171875 C-20.83792952 0.30251185 -10.42482103 -0.07197805 0 0 Z M-45.25 22.33203125 C-46.23096908 23.65388709 -47.18934021 24.99314127 -48.11328125 26.35546875 C-49.5 28.25 -49.5 28.25 -51.484375 30.20703125 C-65.78321379 44.69984654 -69.75831111 69.19959236 -69.7487793 88.68261719 C-69.43688687 112.09923169 -61.75213385 135.87118265 -45.12109375 152.71484375 C-38.29266237 160.06298796 -38.29266237 160.06298796 -29.5 163.25 C-29.5 163.91 -29.5 164.57 -29.5 165.25 C-27.19 165.91 -24.88 166.57 -22.5 167.25 C-22.17 166.26 -21.84 165.27 -21.5 164.25 C-20.84 164.25 -20.18 164.25 -19.5 164.25 C-18.3553125 163.1053125 -18.3553125 163.1053125 -17.1875 161.9375 C-12.0891652 156.8391652 -7.45553744 155.14335856 -0.375 154.875 C6.63988504 154.95917862 12.41984405 157.23706968 17.46875 162.17578125 C18.59820182 163.4117384 19.69247089 164.6815818 20.734375 165.9921875 C22.51979328 167.53292737 22.51979328 167.53292737 25.3046875 167.16015625 C28.87872545 166.14212343 31.68178673 164.70871677 34.875 162.8125 C35.93460937 162.19503906 36.99421875 161.57757813 38.0859375 160.94140625 C38.88257813 160.38324219 39.67921875 159.82507813 40.5 159.25 C40.5 158.59 40.5 157.93 40.5 157.25 C41.08136719 156.9921875 41.66273438 156.734375 42.26171875 156.46875 C56.00093611 148.98771018 64.67016995 130.05301903 68.875 115.875 C71.48781372 106.35527002 71.6823288 97.18992982 71.6875 87.375 C71.69974609 86.15941406 71.71199219 84.94382812 71.72460938 83.69140625 C71.74151188 73.24565836 70.05249407 64.11854027 66.75 54.25 C66.49049561 53.47180908 66.23099121 52.69361816 65.96362305 51.8918457 C63.86031647 45.82244854 61.12376818 40.55876963 57.5 35.25 C57.03078125 34.43917969 56.5615625 33.62835938 56.078125 32.79296875 C50.91788945 24.47783671 43.7595564 18.32514911 35.5 13.25 C34.6234375 12.7034375 33.746875 12.156875 32.84375 11.59375 C22.37892488 5.45919734 11.96150157 3.74115212 -0.0625 3.875 C-1.10857422 3.86339844 -2.15464844 3.85179687 -3.23242188 3.83984375 C-18.89819443 3.89818927 -34.95071733 10.07864361 -45.25 22.33203125 Z " fill="#FEB8A4" transform="translate(375.5,258.75)"/>
<path d="M0 0 C7.28586365 -0.07023197 14.57165157 -0.12317571 21.85778809 -0.15543652 C25.2428808 -0.17093828 28.62773806 -0.1918835 32.01269531 -0.22631836 C60.4842224 -0.49461989 86.167553 1.79715192 108 22 C124.0895175 39.76800665 128.44718501 60.10657735 128.5625 83.25 C128.5712616 84.01441406 128.58002319 84.77882813 128.58905029 85.56640625 C128.76711186 108.24160481 121.77553378 128.69918073 105.84765625 145.171875 C91.0562374 160.02792862 70.6800673 166.93857069 49.859375 167.11352539 C47.48957743 167.11336846 45.11977585 167.10780219 42.75 167.09765625 C41.49614502 167.0962413 40.24229004 167.09482635 38.95043945 167.09336853 C35.64282033 167.08874081 32.33525137 167.07978103 29.02764893 167.06866455 C25.64213684 167.05837176 22.25661714 167.05379909 18.87109375 167.04882812 C12.24737562 167.03868771 5.62369564 167.01993221 -1 167 C-0.97021844 166.13978556 -0.94043688 165.27957111 -0.90975285 164.39328957 C-0.21275492 143.82249416 0.14434307 123.27939295 0.10139394 102.69603682 C0.0949522 99.05937383 0.09454077 95.42270907 0.09336853 91.78604126 C0.0903144 84.96250861 0.08218485 78.13899284 0.07201904 71.31546748 C0.06066893 63.52039198 0.05530089 55.72531548 0.05032361 47.93023372 C0.03999397 31.95347952 0.0225151 15.97674197 0 0 Z M21 4 C20.90319959 6.05027739 20.87813057 8.10394879 20.87974548 10.1565094 C20.87889106 10.80664865 20.87803663 11.4567879 20.87715632 12.12662834 C20.87549974 14.3208558 20.88102575 16.51500802 20.88647461 18.70922852 C20.88675647 20.27585854 20.88659877 21.8424887 20.8860321 23.40911865 C20.88574408 27.67546377 20.89164157 31.94178102 20.89860606 36.20811963 C20.90483882 40.66177051 20.90544334 45.11542197 20.90663147 49.56907654 C20.90974502 58.00867443 20.91795872 66.44825944 20.92798096 74.88785166 C20.93914137 84.49349444 20.94465236 94.09913782 20.94967639 103.70478547 C20.96014132 123.46986418 20.97774121 143.23493128 21 163 C25.46161319 163.10032167 29.92259567 163.17213763 34.38500977 163.21972656 C35.89684512 163.23960437 37.4086061 163.26671673 38.92016602 163.30175781 C55.85479972 163.68395333 71.36848565 159.88314636 84.09765625 147.9609375 C101.45864079 130.06522037 106.39395326 105.38545063 106.37280273 81.10229492 C105.87728966 58.27222716 100.74308685 36.02373771 84.9296875 18.83984375 C70.86758179 5.43245146 54.08721889 2.62751969 35.375 2.8125 C34.09753906 2.81314453 32.82007813 2.81378906 31.50390625 2.81445312 C25.88102183 2.29215568 25.88102183 2.29215568 21 4 Z " fill="#FEB8A4" transform="translate(130,263)"/>
<path d="M0 0 C1.13237091 0.00270905 2.26474182 0.00541809 3.431427 0.00820923 C21.39671066 0.07319828 38.77220334 0.93836816 56.4375 4.4375 C57.38882812 4.61941895 58.34015625 4.80133789 59.3203125 4.98876953 C90.18039041 11.0684222 118.46580281 24.34261493 145.25 40.4375 C146.20479248 41.00678223 147.15958496 41.57606445 148.14331055 42.16259766 C154.66394096 46.13098826 160.56992274 50.56369503 166.4375 55.4375 C167.37980469 56.18257812 168.32210938 56.92765625 169.29296875 57.6953125 C177.40339017 64.18908376 184.92885039 71.26487283 192.4375 78.4375 C192.95376953 78.92508789 193.47003906 79.41267578 194.00195312 79.91503906 C201.66401041 87.16975952 208.15030117 95.0033515 214.4375 103.4375 C215.23124023 104.49662598 215.23124023 104.49662598 216.04101562 105.57714844 C233.14576218 128.50072475 246.43601728 152.71359142 255.56884766 179.85742188 C256.12575373 181.51154873 256.68749733 183.16405941 257.25537109 184.81445312 C263.88014748 204.11789332 268.12258262 224.06001621 269.4375 244.4375 C269.50453125 245.4363623 269.5715625 246.43522461 269.640625 247.46435547 C270.51721886 261.49196445 270.5092712 275.35930154 269.625 289.375 C269.5017334 291.33699341 269.5017334 291.33699341 269.37597656 293.33862305 C268.53703227 305.16637468 266.789317 316.69968259 264.125 328.25 C263.90626221 329.19866943 263.68752441 330.14733887 263.4621582 331.12475586 C256.72179017 359.74171459 245.36245009 387.69622648 229.4375 412.4375 C228.8501709 413.36054932 228.8501709 413.36054932 228.25097656 414.30224609 C220.3049155 426.73997665 211.48191255 438.358243 201.47265625 449.21484375 C199.63102366 451.22614691 197.8766381 453.28569672 196.125 455.375 C191.35218907 460.85818279 185.85211226 465.60588771 180.4375 470.4375 C179.75816406 471.05496094 179.07882812 471.67242188 178.37890625 472.30859375 C162.6299297 486.4318695 145.55985768 497.75094749 126.71728516 507.27783203 C124.62706285 508.34107426 122.5521975 509.428628 120.48046875 510.52734375 C99.54331446 521.50723957 77.04073889 529.10347454 53.875 533.6875 C53.12202637 533.83872314 52.36905273 533.98994629 51.59326172 534.14575195 C34.96948162 537.20802724 18.17327084 537.81705296 1.3125 537.75 C0.33059692 537.74784485 -0.65130615 537.7456897 -1.66296387 537.74346924 C-48.99504903 537.57731424 -92.22699295 525.38435547 -133.5625 502.4375 C-134.25408203 502.06044922 -134.94566406 501.68339844 -135.65820312 501.29492188 C-150.93977432 492.92475637 -164.56133286 482.48274956 -177.26953125 470.58203125 C-179.26087192 468.7196019 -181.29301756 466.94649146 -183.375 465.1875 C-194.32524865 455.60603243 -203.93276112 445.13082556 -212.5625 433.4375 C-213.09262695 432.72513184 -213.62275391 432.01276367 -214.16894531 431.27880859 C-224.32455629 417.59555213 -233.10221002 403.78135882 -240.5625 388.4375 C-241.58288679 386.45810307 -242.60370353 384.47892771 -243.625 382.5 C-257.36858372 354.75899329 -265.50646984 323.2959351 -267.5625 292.4375 C-267.62421387 291.52033203 -267.68592773 290.60316406 -267.74951172 289.65820312 C-269.67363873 259.09673746 -267.25090121 229.10691787 -259.5625 199.4375 C-259.27270264 198.31553223 -259.27270264 198.31553223 -258.97705078 197.17089844 C-248.23441643 156.47657815 -227.27425897 121.04296157 -200.02734375 89.3125 C-198.60909047 87.65824578 -197.19976136 85.99604627 -195.81640625 84.3125 C-192.65275519 80.47153611 -189.19777047 77.22624904 -185.39453125 74.015625 C-183.54341136 72.47490136 -183.54341136 72.47490136 -181.94921875 70.734375 C-180.5625 69.4375 -180.5625 69.4375 -178.5625 69.4375 C-178.33304687 68.86386719 -178.10359375 68.29023438 -177.8671875 67.69921875 C-175.092653 62.88947182 -169.88560341 59.7987129 -165.5625 56.4375 C-164.593125 55.67695313 -163.62375 54.91640625 -162.625 54.1328125 C-155.56030572 48.70276822 -148.20976372 43.99779488 -140.5625 39.4375 C-139.3635091 38.69965945 -138.16561496 37.9600341 -136.96875 37.21875 C-95.19026974 11.47958046 -48.89958288 -0.27587219 0 0 Z M-46.98681641 4.89501953 C-49.44688949 5.41315056 -51.90846869 5.85604635 -54.38671875 6.27734375 C-68.54472423 8.80046437 -82.04743532 13.61925948 -95.5625 18.4375 C-96.73135742 18.85153076 -96.73135742 18.85153076 -97.92382812 19.27392578 C-127.11990657 29.77636497 -155.14921893 48.1468185 -177.5625 69.4375 C-178.84839073 70.54838785 -180.13977793 71.6529566 -181.4375 72.75 C-191.05485378 81.14296787 -199.73187663 90.36350885 -207.5625 100.4375 C-208.35011719 101.41976562 -209.13773438 102.40203125 -209.94921875 103.4140625 C-253.40812617 158.05326976 -272.92441779 229.22896096 -265.1796875 298.40625 C-264.97703726 300.08370816 -264.77142281 301.76081152 -264.5625 303.4375 C-264.47129883 304.20578125 -264.38009766 304.9740625 -264.28613281 305.765625 C-257.06162607 364.57564478 -228.23453017 417.9598961 -186.5625 459.4375 C-185.69753906 460.33726562 -184.83257812 461.23703125 -183.94140625 462.1640625 C-176.67261145 469.68626957 -168.94090702 476.18999023 -160.5625 482.4375 C-160.02463867 482.84677734 -159.48677734 483.25605469 -158.93261719 483.67773438 C-114.36839188 517.53019177 -58.68697746 536.17144325 -2.86132812 535.77368164 C0.69684348 535.74993765 4.25426822 535.75316726 7.8125 535.75976562 C19.84134897 535.74557757 31.56294948 535.45558437 43.4375 533.4375 C44.46423828 533.26597412 45.49097656 533.09444824 46.54882812 532.91772461 C82.12356473 526.56043137 118.68869987 513.22027845 148.4375 492.4375 C149.23776611 491.88545898 149.23776611 491.88545898 150.05419922 491.32226562 C161.01226001 483.74647297 171.27762077 475.52648447 181.1171875 466.53515625 C183.1245432 464.72042559 185.17317609 462.98358313 187.25 461.25 C197.92259336 451.91148081 206.98504371 440.77317309 215.4375 429.4375 C215.91010254 428.81069336 216.38270508 428.18388672 216.86962891 427.53808594 C251.31423103 381.55827983 268.98946124 325.31789486 268.75 268.125 C268.74776428 266.78944565 268.74776428 266.78944565 268.7454834 265.4269104 C268.70391981 251.5612672 267.99650247 238.09272673 265.4375 224.4375 C265.28764648 223.58542969 265.13779297 222.73335937 264.98339844 221.85546875 C260.99404481 199.2576015 254.56153133 177.08937018 244.4375 156.4375 C244.14762207 155.83873047 243.85774414 155.23996094 243.55908203 154.62304688 C230.59560319 127.89286705 214.20891982 103.70038393 193.4375 82.4375 C192.84114746 81.82068359 192.24479492 81.20386719 191.63037109 80.56835938 C184.28628929 72.98404132 176.79757551 65.91211167 168.4375 59.4375 C167.45652344 58.65117187 166.47554688 57.86484375 165.46484375 57.0546875 C156.86138237 50.21133181 147.7697287 44.23517266 138.4375 38.4375 C137.36628906 37.76074219 136.29507812 37.08398438 135.19140625 36.38671875 C123.24509828 29.18313979 110.24698048 23.89604499 97.4375 18.4375 C96.59469482 18.07205078 95.75188965 17.70660156 94.88354492 17.33007812 C87.85314091 14.37959463 80.61328312 12.38300809 73.25 10.4375 C72.59808685 10.26419159 71.94617371 10.09088318 71.27450562 9.912323 C52.10446683 4.84041885 32.86379714 1.36838941 12.99609375 1.19921875 C12.03826492 1.18951553 11.0804361 1.17981232 10.09358215 1.16981506 C7.02067813 1.14505276 3.9479936 1.13231123 0.875 1.125 C-0.17473999 1.12238159 -1.22447998 1.11976318 -2.30603027 1.11706543 C-17.50463806 1.11300303 -32.07128318 1.71893564 -46.98681641 4.89501953 Z " fill="#FEF1D9" transform="translate(302.5625,103.5625)"/>
<path d="M0 0 C2.34310755 1.62492904 4.11159128 3.35635208 6.03125 5.45703125 C7.6101872 7.25410339 7.6101872 7.25410339 9.28125 8.58203125 C12.46569653 8.76000514 12.46569653 8.76000514 15.28125 7.58203125 C16.065 7.39640625 16.84875 7.21078125 17.65625 7.01953125 C18.1925 6.87515625 18.72875 6.73078125 19.28125 6.58203125 C19.28125 7.24203125 19.28125 7.90203125 19.28125 8.58203125 C18.62125 9.24203125 17.96125 9.90203125 17.28125 10.58203125 C17.28125 11.24203125 17.28125 11.90203125 17.28125 12.58203125 C15.96125 12.58203125 14.64125 12.58203125 13.28125 12.58203125 C14.05925888 18.88390322 17.85938697 22.31237002 22.28125 26.58203125 C28.50180978 31.30965669 35.70561006 32.19509023 43.28125 33.58203125 C43.28125 34.57203125 43.28125 35.56203125 43.28125 36.58203125 C31.01330058 37.25322605 19.42480074 36.18278453 9.28125 28.58203125 C6.9453125 26.29296875 6.9453125 26.29296875 4.90625 23.95703125 C4.21789062 23.18101562 3.52953125 22.405 2.8203125 21.60546875 C1.28125 19.58203125 1.28125 19.58203125 1.28125 17.58203125 C0.15033936 17.61345215 0.15033936 17.61345215 -1.00341797 17.64550781 C-22.20353643 18.15542085 -39.55049368 16.82717095 -58.71875 7.58203125 C-58.71875 7.25203125 -58.71875 6.92203125 -58.71875 6.58203125 C-57.06875 6.58203125 -55.41875 6.58203125 -53.71875 6.58203125 C-53.71875 7.24203125 -53.71875 7.90203125 -53.71875 8.58203125 C-52.06875 8.58203125 -50.41875 8.58203125 -48.71875 8.58203125 C-48.71875 9.24203125 -48.71875 9.90203125 -48.71875 10.58203125 C-47.06875 10.58203125 -45.41875 10.58203125 -43.71875 10.58203125 C-43.71875 11.24203125 -43.71875 11.90203125 -43.71875 12.58203125 C-42.501875 12.56140625 -41.285 12.54078125 -40.03125 12.51953125 C-36.79897678 12.51379009 -33.86940259 12.7943681 -30.71875 13.58203125 C-30.71875 12.92203125 -30.71875 12.26203125 -30.71875 11.58203125 C-32.36875 10.92203125 -34.01875 10.26203125 -35.71875 9.58203125 C-35.38875 8.59203125 -35.05875 7.60203125 -34.71875 6.58203125 C-34.05875 6.58203125 -33.39875 6.58203125 -32.71875 6.58203125 C-32.46867187 5.97746094 -32.21859375 5.37289063 -31.9609375 4.75 C-30.53089229 2.25416638 -29.29355307 1.35979082 -26.84375 -0.10546875 C-26.16570312 -0.52183594 -25.48765625 -0.93820312 -24.7890625 -1.3671875 C-16.73278078 -5.45613049 -7.6743453 -4.21360414 0 0 Z " fill="#FDB8A2" transform="translate(388.71875,416.41796875)"/>
<path d="M0 0 C1.2375 -0.020625 2.475 -0.04125 3.75 -0.0625 C4.44609375 -0.07410156 5.1421875 -0.08570313 5.859375 -0.09765625 C9.86197884 0.08494429 9.86197884 0.08494429 12 1 C13.59765625 3.328125 13.59765625 3.328125 15.0625 6.25 C17.96174591 13.09281009 17.96174591 13.09281009 23 18 C23 12.72 23 7.44 23 2 C23.66 2 24.32 2 25 2 C25 9.59 25 17.18 25 25 C23.68 25 22.36 25 21 25 C17 19.88888889 17 19.88888889 17 17 C15.515 16.505 15.515 16.505 14 16 C13.05078125 13.93359375 13.05078125 13.93359375 12.3125 11.4375 C12.06113281 10.61121094 11.80976563 9.78492188 11.55078125 8.93359375 C11.36902344 8.29550781 11.18726563 7.65742188 11 7 C10.34 7 9.68 7 9 7 C9 13.27 9 19.54 9 26 C-1.125 27.125 -1.125 27.125 -4.59765625 26.87890625 C-5.26547119 26.83580322 -5.93328613 26.7927002 -6.62133789 26.74829102 C-7.42692139 26.68697998 -8.23250488 26.62566895 -9.0625 26.5625 C-11.681875 26.376875 -14.30125 26.19125 -17 26 C-17.495 15.605 -17.495 15.605 -18 5 C-18.66 5.99 -19.32 6.98 -20 8 C-20.66 8 -21.32 8 -22 8 C-22.13277344 9.28777344 -22.26554687 10.57554687 -22.40234375 11.90234375 C-22.58049899 13.58075362 -22.75889692 15.25913773 -22.9375 16.9375 C-23.02451172 17.78763672 -23.11152344 18.63777344 -23.20117188 19.51367188 C-23.28818359 20.32255859 -23.37519531 21.13144531 -23.46484375 21.96484375 C-23.543396 22.7137085 -23.62194824 23.46257324 -23.70288086 24.23413086 C-24 26 -24 26 -25 27 C-26.66617115 27.04063832 -28.33388095 27.042721 -30 27 C-31.6498007 23.70039859 -31.38258361 20.00872116 -31.5625 16.375 C-31.60568359 15.57320313 -31.64886719 14.77140625 -31.69335938 13.9453125 C-31.79951457 11.9637489 -31.90026855 9.98189729 -32 8 C-32.66 8 -33.32 8 -34 8 C-34.2475 7.0409375 -34.2475 7.0409375 -34.5 6.0625 C-34.995 5.381875 -35.49 4.70125 -36 4 C-38.64 3.67 -41.28 3.34 -44 3 C-44 10.26 -44 17.52 -44 25 C-45.65 25 -47.3 25 -49 25 C-49 17.74 -49 10.48 -49 3 C-50.98 3.33 -52.96 3.66 -55 4 C-55.33 3.34 -55.66 2.68 -56 2 C-47.75 2 -39.5 2 -31 2 C-28 8 -28 8 -28 10 C-24.91240441 9.35932024 -24.91240441 9.35932024 -24.05078125 7.15234375 C-23.80714844 6.42144531 -23.56351563 5.69054687 -23.3125 4.9375 C-22.93544922 3.83728516 -22.93544922 3.83728516 -22.55078125 2.71484375 C-22.36902344 2.14894531 -22.18726563 1.58304687 -22 1 C-20.35425434 0.97311849 -18.70838587 0.95365877 -17.0625 0.9375 C-15.68771484 0.92009766 -15.68771484 0.92009766 -14.28515625 0.90234375 C-12 1 -12 1 -11 2 C-10.91330568 3.4887186 -10.89296506 4.981445 -10.90234375 6.47265625 C-10.90556641 7.37177734 -10.90878906 8.27089844 -10.91210938 9.19726562 C-10.92467773 10.61555664 -10.92467773 10.61555664 -10.9375 12.0625 C-10.94201172 13.01189453 -10.94652344 13.96128906 -10.95117188 14.93945312 C-10.96299872 17.29299531 -10.98093479 19.64650532 -11 22 C-7.7 22 -4.4 22 -1 22 C-1.01160156 20.57945312 -1.02320313 19.15890625 -1.03515625 17.6953125 C-1.04453387 15.83854298 -1.0536341 13.98177204 -1.0625 12.125 C-1.07087891 11.18785156 -1.07925781 10.25070312 -1.08789062 9.28515625 C-1.09111328 8.38925781 -1.09433594 7.49335938 -1.09765625 6.5703125 C-1.10289307 5.74289551 -1.10812988 4.91547852 -1.11352539 4.06298828 C-1 2 -1 2 0 0 Z " fill="#F58930" transform="translate(200,452)"/>
<path d="M0 0 C5.28 0 10.56 0 16 0 C16.33 0.66 16.66 1.32 17 2 C20.76697374 2.29909913 20.76697374 2.29909913 22.9453125 1.0234375 C26.74789766 -0.87062583 30.86300533 -0.54159394 35 0 C38.85544798 1.99657127 40.59805092 3.39707638 43 7 C43.80103186 10.97435037 43.84566976 14.55942691 41.76171875 18.109375 C38.80719182 21.65773985 36.72335212 23.73480466 31.9140625 24.203125 C27.13234137 24.3010442 23.82555748 24.22781413 20 21 C19.67 20.01 19.34 19.02 19 18 C18.01 18 17.02 18 16 18 C15.34 16.68 14.68 15.36 14 14 C13.34 14.66 12.68 15.32 12 16 C8.875 15.625 8.875 15.625 6 15 C6 17.64 6 20.28 6 23 C4.02 23 2.04 23 0 23 C0 15.41 0 7.82 0 0 Z " fill="#FA8721" transform="translate(261,454)"/>
<path d="M0 0 C1.98 0 3.96 0 6 0 C7.98 7.26 9.96 14.52 12 22 C12.33 14.74 12.66 7.48 13 0 C15.31 0 17.62 0 20 0 C20 6.93 20 13.86 20 21 C23.3 20.67 26.6 20.34 30 20 C30 13.4 30 6.8 30 0 C31.65 0 33.3 0 35 0 C35 7.26 35 14.52 35 22 C37.97 21.67 40.94 21.34 44 21 C44 21.66 44 22.32 44 23 C31.65675952 24.07666895 19.38298066 24.10159237 7 24 C6.34 21.03 5.68 18.06 5 15 C3.02 15 1.04 15 -1 15 C-1.66 17.64 -2.32 20.28 -3 23 C-3.66 23 -4.32 23 -5 23 C-4.354523 15.09290669 -2.13002861 7.60866033 0 0 Z " fill="#F99A57" transform="translate(341,454)"/>
<path d="M0 0 C3.5625 1.8125 3.5625 1.8125 6 4 C6 4.99 6 5.98 6 7 C5.34 7 4.68 7 4 7 C4 7.99 4 8.98 4 10 C5.32 10 6.64 10 8 10 C8 10.66 8 11.32 8 12 C7.34 12 6.68 12 6 12 C6 15.63 6 19.26 6 23 C-7.06542056 25.17757009 -7.06542056 25.17757009 -11.875 22.25 C-15.95969149 17.92503253 -16.48887088 14.22881453 -16.39453125 8.4140625 C-15.79215671 4.72824601 -13.92527412 3.15913089 -11 1 C-7.53002704 -0.73498648 -3.79374461 -0.4702464 0 0 Z " fill="#FB8721" transform="translate(244,454)"/>
<path d="M0 0 C1.85818359 -0.01836914 1.85818359 -0.01836914 3.75390625 -0.03710938 C11.2710605 -0.04899107 18.29022205 0.51706347 25.625 2.1875 C25.625 2.5175 25.625 2.8475 25.625 3.1875 C13.085 2.8575 0.545 2.5275 -12.375 2.1875 C-12.375 53.9975 -12.375 105.8075 -12.375 159.1875 C-2.145 159.1875 8.085 159.1875 18.625 159.1875 C18.625 159.5175 18.625 159.8475 18.625 160.1875 C7.735 160.1875 -3.155 160.1875 -14.375 160.1875 C-14.39754549 139.47374478 -14.41597828 118.75999944 -14.42681217 98.04623508 C-14.43197552 88.42917505 -14.43901895 78.81212316 -14.45043945 69.19506836 C-14.46038512 60.81598831 -14.46685315 52.43691416 -14.46908849 44.05782837 C-14.4703958 39.61833875 -14.47348292 35.17886601 -14.48073006 30.73938179 C-14.48748842 26.56572727 -14.48961734 22.39209667 -14.48810768 18.21843719 C-14.48838409 16.6820888 -14.49039031 15.14573966 -14.49420547 13.60939598 C-14.49913987 11.52090383 -14.49799925 9.43250343 -14.49525452 7.3440094 C-14.49617631 6.17241052 -14.4970981 5.00081163 -14.49804783 3.79370975 C-14.19915811 -2.53691234 -4.83874641 0.00244135 0 0 Z " fill="#F99146" transform="translate(165.375,265.8125)"/>
<path d="M0 0 C2.57285724 2.172635 4.48996919 3.97993838 6 7 C6.58029015 14.07953977 6.58029015 14.07953977 4.1875 17.875 C2 20 2 20 -1 22 C-5.02381752 21.92683968 -7.26132079 21.58715527 -10.4375 19.0625 C-12.66855891 14.68962453 -12.80677854 10.81694246 -12 6 C-8.79447233 0.76430481 -6.11525642 -0.71944193 0 0 Z " fill="#FC861D" transform="translate(294,455)"/>
<path d="M0 0 C2.71731882 1.74379121 4.00155777 3.37047075 6 6 C6 6.66 6 7.32 6 8 C6.66 8 7.32 8 8 8 C8.33 9.65 8.66 11.3 9 13 C5.47923768 13.05855176 1.9586024 13.0937806 -1.5625 13.125 C-3.0484668 13.15013672 -3.0484668 13.15013672 -4.56445312 13.17578125 C-10.12728491 13.21274359 -14.74843075 12.87082551 -20 11 C-19.52591957 6.73327616 -17.11692878 4.7544952 -14 2 C-9.54457994 -0.67138394 -5.06128549 -0.93904353 0 0 Z " fill="#FA8825" transform="translate(378,417)"/>
<path d="M0 0 C11 0 11 0 15 2 C15.35233161 7.37305699 15.35233161 7.37305699 15 10 C13 12 13 12 11 13 C11.3609375 13.48210937 11.721875 13.96421875 12.09375 14.4609375 C12.5578125 15.09257812 13.021875 15.72421875 13.5 16.375 C13.9640625 17.00148438 14.428125 17.62796875 14.90625 18.2734375 C16 20 16 20 16 22 C16.66 22.33 17.32 22.66 18 23 C13.51658163 23.36352041 13.51658163 23.36352041 11.3125 21.8125 C10 20 10 20 9.0625 17.4375 C8.09854781 14.51492577 8.09854781 14.51492577 4 13 C4 16.3 4 19.6 4 23 C2.68 23 1.36 23 0 23 C0 15.41 0 7.82 0 0 Z " fill="#FEB38B" transform="translate(307,454)"/>
<path d="M0 0 C1.71413086 -0.01836914 1.71413086 -0.01836914 3.46289062 -0.03710938 C14.27333577 -0.05544252 24.62483094 1.105958 34.875 4.625 C36.10347656 5.03621094 37.33195312 5.44742187 38.59765625 5.87109375 C41.45117128 7.03954401 43.4861524 8.1976316 45.8125 10.1875 C41.09732466 9.36541532 36.57770355 7.99485764 32 6.625 C31.21173828 6.39103516 30.42347656 6.15707031 29.61132812 5.91601562 C27.67779864 5.34181596 25.74506823 4.76492667 23.8125 4.1875 C23.8125 4.8475 23.8125 5.5075 23.8125 6.1875 C26.7825 6.6825 26.7825 6.6825 29.8125 7.1875 C30.3075 8.6725 30.3075 8.6725 30.8125 10.1875 C30.1834375 9.99414062 29.554375 9.80078125 28.90625 9.6015625 C28.0503125 9.34117187 27.194375 9.08078125 26.3125 8.8125 C25.4771875 8.55726563 24.641875 8.30203125 23.78125 8.0390625 C22.8015625 7.75804687 21.821875 7.47703125 20.8125 7.1875 C19.63558594 6.82914062 18.45867187 6.47078125 17.24609375 6.1015625 C11.67781941 4.7334781 6.07651295 4.8968475 0.375 4.9375 C-1.24631836 4.92589844 -1.24631836 4.92589844 -2.90039062 4.9140625 C-9.30968948 4.92960962 -14.98976452 5.54519785 -21.1875 7.1875 C-21.1875 6.5275 -21.1875 5.8675 -21.1875 5.1875 C-19.8675 5.1875 -18.5475 5.1875 -17.1875 5.1875 C-17.1875 4.5275 -17.1875 3.8675 -17.1875 3.1875 C-22.77250567 3.38648708 -22.77250567 3.38648708 -27.1875 6.1875 C-29.5703125 6.6015625 -29.5703125 6.6015625 -32.3125 6.8125 C-33.22257812 6.88726562 -34.13265625 6.96203125 -35.0703125 7.0390625 C-36.11832031 7.11253906 -36.11832031 7.11253906 -37.1875 7.1875 C-34.536694 4.536694 -32.16311115 4.13887659 -28.5625 3.125 C-27.37398438 2.78339844 -26.18546875 2.44179688 -24.9609375 2.08984375 C-16.62745037 0.09705335 -8.53414918 0.00473331 0 0 Z " fill="#FEB38B" transform="translate(375.1875,258.8125)"/>
<path d="M0 0 C8.25 0 16.5 0 25 0 C30.625 12.375 30.625 12.375 30.3125 17.6875 C30.24482422 19.20923828 30.24482422 19.20923828 30.17578125 20.76171875 C30.11777344 21.50035156 30.05976563 22.23898437 30 23 C29.01 23 28.02 23 27 23 C26.95101562 22.27554687 26.90203125 21.55109375 26.8515625 20.8046875 C26.44793848 15.58541133 25.98724193 10.90186342 24 6 C23.34 6 22.68 6 22 6 C21.7525 5.0409375 21.7525 5.0409375 21.5 4.0625 C21.005 3.381875 20.51 2.70125 20 2 C17.36 1.67 14.72 1.34 12 1 C12 8.26 12 15.52 12 23 C10.35 23 8.7 23 7 23 C7 15.74 7 8.48 7 1 C5.02 1.33 3.04 1.66 1 2 C0.67 1.34 0.34 0.68 0 0 Z " fill="#FEAE7D" transform="translate(144,454)"/>
<path d="M0 0 C3.85544798 1.99657127 5.59805092 3.39707638 8 7 C8.80103186 10.97435037 8.84566976 14.55942691 6.76171875 18.109375 C3.80719182 21.65773985 1.72335212 23.73480466 -3.0859375 24.203125 C-7.88143024 24.30132622 -11.18917295 24.2504113 -15 21 C-18.36941573 17.16583727 -18.56509158 13.29876044 -18.42578125 8.37890625 C-17.76741152 4.7004919 -15.95724639 3.13196833 -13 1 C-8.65450479 -0.4484984 -4.54143034 -0.52265295 0 0 Z M-13 5 C-14.85527807 8.71055614 -14.44575277 12.95001771 -14 17 C-12.00463849 20.91090856 -10.78190163 21.73936612 -6.625 23.125 C-1.66504626 22.95396711 -0.41802892 21.49941057 3 18 C4.60540839 14.78918322 4.48463309 11.48289645 4 8 C1.75837575 3.74333301 1.75837575 3.74333301 -2 1 C-7.11519005 0.43164555 -9.32841583 1.43331824 -13 5 Z " fill="#FEB186" transform="translate(296,454)"/>
<path d="M0 0 C3.54983661 3.54983661 4.10186829 8.80511537 5.375 13.5625 C5.68518066 14.7175 5.99536133 15.8725 6.31494141 17.0625 C11.01163909 35.13313631 14.17899334 53.95392824 14.1328125 72.6640625 C14.13376923 73.54097748 14.13472595 74.41789246 14.13571167 75.32138062 C14.13638654 77.1582649 14.13458115 78.99515167 14.13037109 80.83203125 C14.12499989 83.62505488 14.13034647 86.41791869 14.13671875 89.2109375 C14.1360581 91.00781285 14.1347772 92.8046881 14.1328125 94.6015625 C14.13483673 95.42572662 14.13686096 96.24989075 14.13894653 97.09902954 C14.11873641 102.15110796 13.72065672 106.99834177 13 112 C12.67 112 12.34 112 12 112 C12 93.19 12 74.38 12 55 C11.34 55 10.68 55 10 55 C9.93941406 54.09636719 9.87882813 53.19273437 9.81640625 52.26171875 C9.73261719 51.08222656 9.64882813 49.90273438 9.5625 48.6875 C9.48128906 47.51574219 9.40007813 46.34398437 9.31640625 45.13671875 C9.1132629 41.97409042 9.1132629 41.97409042 8 39 C7.87218214 36.32605036 7.95608129 33.67904143 8 31 C7.34 31 6.68 31 6 31 C5.90912109 30.04287109 5.90912109 30.04287109 5.81640625 29.06640625 C5.73261719 28.24011719 5.64882813 27.41382813 5.5625 26.5625 C5.48128906 25.73878906 5.40007813 24.91507812 5.31640625 24.06640625 C5.21069185 22.01337975 5.21069185 22.01337975 4 21 C3.45693396 18.60637738 2.96133991 16.2219733 2.5 13.8125 C2.36980469 13.15185547 2.23960937 12.49121094 2.10546875 11.81054688 C1.33792444 7.88366611 0.63883812 3.94973953 0 0 Z " fill="#EC9444" transform="translate(557,288)"/>
<path d="M0 0 C5 0 5 0 6.36206055 1.36108398 C6.70019775 1.98313721 7.03833496 2.60519043 7.38671875 3.24609375 C7.76763672 3.91833984 8.14855469 4.59058594 8.54101562 5.28320312 C8.91935547 5.99412109 9.29769531 6.70503906 9.6875 7.4375 C12.05051128 12.47640227 12.05051128 12.47640227 16 16 C16 10.72 16 5.44 16 0 C16.66 0 17.32 0 18 0 C18 7.59 18 15.18 18 23 C16.68 23 15.36 23 14 23 C10 17.88888889 10 17.88888889 10 15 C9.01 14.67 8.02 14.34 7 14 C6.05078125 11.93359375 6.05078125 11.93359375 5.3125 9.4375 C5.06113281 8.61121094 4.80976563 7.78492188 4.55078125 6.93359375 C4.36902344 6.29550781 4.18726563 5.65742188 4 5 C3.34 5 2.68 5 2 5 C2 10.94 2 16.88 2 23 C1.34 23 0.68 23 0 23 C0 15.41 0 7.82 0 0 Z " fill="#FEB38F" transform="translate(207,454)"/>
<path d="M0 0 C3.0625 1.875 3.0625 1.875 5 4 C5 4.66 5 5.32 5 6 C3.68 6 2.36 6 1 6 C0.566875 5.34 0.13375 4.68 -0.3125 4 C-1.1478125 3.01 -1.1478125 3.01 -2 2 C-5.62563814 1.66619186 -5.62563814 1.66619186 -9 2 C-9 2.66 -9 3.32 -9 4 C-9.66 4 -10.32 4 -11 4 C-11.08126087 6.08268593 -11.13930839 8.16628658 -11.1875 10.25 C-11.22230469 11.41015625 -11.25710937 12.5703125 -11.29296875 13.765625 C-10.97696824 17.2542706 -10.45227995 18.55939757 -8 21 C-5.29714235 21.97025659 -3.62117844 22.12423569 -0.8125 21.5625 C2.16605313 18.99478179 2.26623117 15.79113894 3 12 C2.01 12.495 2.01 12.495 1 13 C-0.99960012 13.039992 -3.00047242 13.04346799 -5 13 C-5 12.34 -5 11.68 -5 11 C-1.04 11 2.92 11 7 11 C6.67 14.96 6.34 18.92 6 23 C-7.06542056 25.17757009 -7.06542056 25.17757009 -11.875 22.25 C-15.95969149 17.92503253 -16.48887088 14.22881453 -16.39453125 8.4140625 C-15.79215671 4.72824601 -13.92527412 3.15913089 -11 1 C-7.54218063 -0.72890969 -3.78063425 -0.48887512 0 0 Z " fill="#FEAF7D" transform="translate(244,454)"/>
<path d="M0 0 C2.24287062 1.59009484 3.57612547 3.20793821 5.09375 5.484375 C3.77375 5.154375 2.45375 4.824375 1.09375 4.484375 C1.09375 3.824375 1.09375 3.164375 1.09375 2.484375 C-1.21625 2.154375 -3.52625 1.824375 -5.90625 1.484375 C-4.91625 2.969375 -4.91625 2.969375 -3.90625 4.484375 C-4.28125 6.671875 -4.28125 6.671875 -4.90625 8.484375 C-5.22335937 7.9790625 -5.54046875 7.47375 -5.8671875 6.953125 C-8.01846032 3.95798273 -9.61598211 1.81276831 -13.28515625 0.87890625 C-19.23460215 0.68816066 -23.21322647 1.84488736 -27.90625 5.484375 C-29.86808059 8.56818286 -29.86808059 8.56818286 -30.90625 11.484375 C-33.38125 10.494375 -33.38125 10.494375 -35.90625 9.484375 C-35.57625 8.494375 -35.24625 7.504375 -34.90625 6.484375 C-34.24625 6.484375 -33.58625 6.484375 -32.90625 6.484375 C-32.65617187 5.87980469 -32.40609375 5.27523438 -32.1484375 4.65234375 C-30.71839229 2.15651013 -29.48105307 1.26213457 -27.03125 -0.203125 C-26.35320312 -0.61949219 -25.67515625 -1.03585937 -24.9765625 -1.46484375 C-16.739548 -5.64551715 -7.86238542 -4.13541051 0 0 Z " fill="#FEB28A" transform="translate(388.90625,416.515625)"/>
<path d="M0 0 C2.4375 1.3125 2.4375 1.3125 4 3 C4 3.99 4 4.98 4 6 C3.01 6 2.02 6 1 6 C0.34 4.68 -0.32 3.36 -1 2 C-2.65 2 -4.3 2 -6 2 C-5.67528842 5.06057934 -5.02182346 5.97981797 -2.71484375 8.11328125 C-1.79832031 8.83902344 -0.88179687 9.56476563 0.0625 10.3125 C4.77532471 14.39245968 4.77532471 14.39245968 5.765625 17.0703125 C5.8125 18.9375 5.8125 18.9375 5 22 C1.2626144 24.4915904 -0.57331583 24.45793285 -5 24 C-7.98356441 22.18391731 -9.61660986 21.06169578 -10.8125 17.75 C-10.9053125 16.88375 -10.9053125 16.88375 -11 16 C-9.68 15.67 -8.36 15.34 -7 15 C-6.34 16.98 -5.68 18.96 -5 21 C-2.69 21.33 -0.38 21.66 2 22 C2 20.02 2 18.04 2 16 C1.42765625 15.73832031 0.8553125 15.47664063 0.265625 15.20703125 C-2.16615566 13.91147914 -4.13608528 12.45301025 -6.25 10.6875 C-7.30960938 9.82705078 -7.30960938 9.82705078 -8.390625 8.94921875 C-10 7 -10 7 -10.421875 4.39453125 C-10.28265625 3.60433594 -10.1434375 2.81414062 -10 2 C-6.28986601 -0.47342266 -4.38939738 -0.38503486 0 0 Z " fill="#FEB288" transform="translate(138,454)"/>
<path d="M0 0 C3.3 0 6.6 0 10 0 C8.68 0.33 7.36 0.66 6 1 C6 8.59 6 16.18 6 24 C5.67 24 5.34 24 5 24 C4.67 17.4 4.34 10.8 4 4 C3.01 5.485 3.01 5.485 2 7 C1.34 7 0.68 7 0 7 C-0.13277344 8.28777344 -0.26554688 9.57554687 -0.40234375 10.90234375 C-0.58049899 12.58075362 -0.75889692 14.25913773 -0.9375 15.9375 C-1.02451172 16.78763672 -1.11152344 17.63777344 -1.20117188 18.51367188 C-1.28818359 19.32255859 -1.37519531 20.13144531 -1.46484375 20.96484375 C-1.543396 21.7137085 -1.62194824 22.46257324 -1.70288086 23.23413086 C-2 25 -2 25 -3 26 C-4.66617115 26.04063832 -6.33388095 26.042721 -8 26 C-9.44207941 23.11584117 -9.09394887 20.58278472 -9.0625 17.375 C-9.05347656 16.18648438 -9.04445312 14.99796875 -9.03515625 13.7734375 C-9.02355469 12.85820312 -9.01195312 11.94296875 -9 11 C-7 13 -7 13 -6.8046875 15.6015625 C-6.82789063 16.59929687 -6.85109375 17.59703125 -6.875 18.625 C-6.89304688 19.62789063 -6.91109375 20.63078125 -6.9296875 21.6640625 C-6.96449219 22.82035156 -6.96449219 22.82035156 -7 24 C-6.01 24 -5.02 24 -4 24 C-4.10699219 22.95199219 -4.21398437 21.90398437 -4.32421875 20.82421875 C-4.44615626 19.44538686 -4.56720365 18.06647604 -4.6875 16.6875 C-4.79674805 15.65206055 -4.79674805 15.65206055 -4.90820312 14.59570312 C-5.33310239 9.4219297 -5.33310239 9.4219297 -3.59375 7.21875 C-3.0678125 6.8165625 -2.541875 6.414375 -2 6 C-0.79950593 2.89992799 -0.79950593 2.89992799 0 0 Z " fill="#F78D3B" transform="translate(178,453)"/>
<path d="M0 0 C4.95 0 9.9 0 15 0 C15 0.66 15 1.32 15 2 C11.7 1.67 8.4 1.34 5 1 C5 4.63 5 8.26 5 12 C6.98 12 8.96 12 11 12 C11 12.33 11 12.66 11 13 C9.02 13 7.04 13 5 13 C5 16.3 5 19.6 5 23 C3.35 23 1.7 23 0 23 C0 15.41 0 7.82 0 0 Z " fill="#FDA76E" transform="translate(261,454)"/>
<path d="M0 0 C1.65 0 3.3 0 5 0 C5 0.66 5 1.32 5 2 C6.65 2 8.3 2 10 2 C10 2.66 10 3.32 10 4 C11.65 4 13.3 4 15 4 C15 4.66 15 5.32 15 6 C16.216875 5.979375 17.43375 5.95875 18.6875 5.9375 C21.91977322 5.93175884 24.84934741 6.21233685 28 7 C28 6.34 28 5.68 28 5 C28.95003906 5.15339844 29.90007812 5.30679687 30.87890625 5.46484375 C35.54961567 6.13208795 40.22798139 6.34403564 44.9375 6.5625 C45.81212891 6.60568359 46.68675781 6.64886719 47.58789062 6.69335938 C49.72511995 6.79846901 51.86254238 6.89963985 54 7 C54 7.33 54 7.66 54 8 C49.38 8.33 44.76 8.66 40 9 C46.27 9.33 52.54 9.66 59 10 C59 10.33 59 10.66 59 11 C37.41058289 11.62494416 19.55309459 10.43075302 0 1 C0 0.67 0 0.34 0 0 Z " fill="#FEB187" transform="translate(330,423)"/>
<path d="M0 0 C0.33 0 0.66 0 1 0 C1.33 3.3 1.66 6.6 2 10 C2.33 10 2.66 10 3 10 C3.38897161 11.62171239 3.76078298 13.24754925 4.125 14.875 C4.33382812 15.77992188 4.54265625 16.68484375 4.7578125 17.6171875 C4.83773437 18.40351563 4.91765625 19.18984375 5 20 C4.34 20.66 3.68 21.32 3 22 C2.67 23.32 2.34 24.64 2 26 C-0.64 25.34 -3.28 24.68 -6 24 C-6 23.01 -6 22.02 -6 21 C-6.66 21 -7.32 21 -8 21 C-8.639375 20.030625 -9.27875 19.06125 -9.9375 18.0625 C-11.71061007 14.75744775 -11.71061007 14.75744775 -15 14 C-15 16.97 -15 19.94 -15 23 C-15.33 23 -15.66 23 -16 23 C-16 17.06 -16 11.12 -16 5 C-15.34 5 -14.68 5 -14 5 C-12.37842262 7.33507143 -11.1541972 9.3446619 -10.5 12.125 C-9.86587609 14.50296466 -8.79319537 15.34474274 -7 17 C-4 20.66666667 -4 20.66666667 -4 23 C-2.68 23 -1.36 23 0 23 C0 15.41 0 7.82 0 0 Z " fill="#F58B37" transform="translate(225,454)"/>
<path d="M0 0 C0.66 0.33 1.32 0.66 2 1 C4.3730652 8.7936457 4.26643246 16.40734617 4.1875 24.5 C4.18685547 25.78648437 4.18621094 27.07296875 4.18554688 28.3984375 C4.14054202 37.85945798 4.14054202 37.85945798 3 39 C2.84084321 40.53851559 2.72293375 42.08137761 2.625 43.625 C2.20242688 48.27990697 1.00899556 51.75020171 -1 56 C-2.05921799 58.98114747 -3.03655545 61.98667343 -4 65 C-4.66 65 -5.32 65 -6 65 C-5.5625 63.54166667 -5.125 62.08333333 -4.6875 60.625 C-4.41550781 59.71234375 -4.14351563 58.7996875 -3.86328125 57.859375 C-3.31167316 56.03232919 -2.747756 54.20892493 -2.16796875 52.390625 C-1.90628906 51.56046875 -1.64460938 50.7303125 -1.375 49.875 C-1.01535156 48.75738281 -1.01535156 48.75738281 -0.6484375 47.6171875 C1.35871044 39.51604823 1.15112467 31.35708142 1.125 23.0625 C1.12886719 21.83853516 1.13273437 20.61457031 1.13671875 19.35351562 C1.12968611 12.81667749 0.88056892 6.47847137 0 0 Z " fill="#FEB48D" transform="translate(445,323)"/>
<path d="M0 0 C2.9375 0.375 2.9375 0.375 6 1 C6.33 1.66 6.66 2.32 7 3 C10.29828692 5.19885794 13.09775999 5.33932522 17 5 C17.66 4.34 18.32 3.68 19 3 C21.78890076 3.51296906 24.40305381 4.11812032 27.125 4.875 C27.87910156 5.07480469 28.63320313 5.27460938 29.41015625 5.48046875 C31.27624952 5.97651886 33.13851549 6.48692568 35 7 C35 7.99 35 8.98 35 10 C22.72011249 10.67184795 11.16479519 9.59369994 1 2 C0.67 1.34 0.34 0.68 0 0 Z " fill="#FEB48F" transform="translate(397,443)"/>
<path d="M0 0 C1.32 0 2.64 0 4 0 C4 7.26 4 14.52 4 22 C7.3 21.67 10.6 21.34 14 21 C14 21.66 14 22.32 14 23 C9.38 23 4.76 23 0 23 C0 15.41 0 7.82 0 0 Z " fill="#FEB289" transform="translate(184,454)"/>
<path d="M0 0 C1.32 0 2.64 0 4 0 C4 7.26 4 14.52 4 22 C7.3 21.67 10.6 21.34 14 21 C14 21.66 14 22.32 14 23 C9.38 23 4.76 23 0 23 C0 15.41 0 7.82 0 0 Z " fill="#FFB384" transform="translate(355,454)"/>
<path d="M0 0 C1.32 0 2.64 0 4 0 C4 7.26 4 14.52 4 22 C6.97 21.67 9.94 21.34 13 21 C13 21.66 13 22.32 13 23 C8.71 23 4.42 23 0 23 C0 15.41 0 7.82 0 0 Z " fill="#FEB289" transform="translate(372,454)"/>
<path d="M0 0 C0.54269531 0.40992188 1.08539063 0.81984375 1.64453125 1.2421875 C2.35996094 1.78101563 3.07539063 2.31984375 3.8125 2.875 C4.52019531 3.40867187 5.22789062 3.94234375 5.95703125 4.4921875 C7.60456297 5.70814781 9.29624211 6.86416141 11 8 C11.1875 11.125 11.1875 11.125 11 14 C8.75 14.75 8.75 14.75 6 15 C3.6875 13.3125 3.6875 13.3125 2 11 C2 9.68 2 8.36 2 7 C-1.0745356 7.7763932 -1.0745356 7.7763932 -3 10 C-3.33 8.68 -3.66 7.36 -4 6 C-2.68 5.34 -1.36 4.68 0 4 C0 2.68 0 1.36 0 0 Z " fill="#F8872B" transform="translate(129,462)"/>
<path d="M0 0 C1.32 0 2.64 0 4 0 C4 7.59 4 15.18 4 23 C2.68 23 1.36 23 0 23 C0 15.41 0 7.82 0 0 Z " fill="#FFB390" transform="translate(200,454)"/>
<path d="M0 0 C3.96 0 7.92 0 12 0 C11.67 3.96 11.34 7.92 11 12 C5.91514887 12.84747519 1.14942917 13.49833185 -4 13 C-7 10.5 -7 10.5 -9 8 C-8.34 8 -7.68 8 -7 8 C-6.67 7.34 -6.34 6.68 -6 6 C-5.608125 6.639375 -5.21625 7.27875 -4.8125 7.9375 C-3.14578514 10.16961248 -3.14578514 10.16961248 -0.5625 10.875 C2.51393863 11.02507018 3.64850816 11.02714814 6 9 C6.95850719 6.34109022 7.45952793 3.79243905 8 1 C7.01 1.495 7.01 1.495 6 2 C4.00039988 2.039992 1.99952758 2.04346799 0 2 C0 1.34 0 0.68 0 0 Z " fill="#FDA967" transform="translate(239,465)"/>
<path d="M0 0 C0.33 0 0.66 0 1 0 C1.25 6.625 1.25 6.625 -1 10 C-1.42064891 12.0290124 -1.76841476 14.07381725 -2.0625 16.125 C-2.90042076 21.90042076 -2.90042076 21.90042076 -4 23 C-4.165 24.155 -4.33 25.31 -4.5 26.5 C-5 30 -5 30 -6 31 C-6.20768229 32.47396739 -6.36716017 33.9549126 -6.5 35.4375 C-6.89041096 39.78082192 -6.89041096 39.78082192 -8 42 C-8.26955833 44.33189345 -8.44507377 46.66321507 -8.62109375 49.00390625 C-8.74613281 49.66261719 -8.87117188 50.32132812 -9 51 C-9.99 51.495 -9.99 51.495 -11 52 C-10.65542211 41.35055314 -8.76429505 31.74991264 -6.0625 21.5 C-5.69751245 20.07318619 -5.3335757 18.64610316 -4.97070312 17.21875 C-3.48259868 11.41534097 -1.95238807 5.66825834 0 0 Z " fill="#EF8D36" transform="translate(50,285)"/>
<path d="M0 0 C3.7252515 4.65401283 5 9.02212283 5 15 C3.02 15 1.04 15 -1 15 C-1.66 17.64 -2.32 20.28 -3 23 C-3.66 23 -4.32 23 -5 23 C-4.354523 15.09290669 -2.13002861 7.60866033 0 0 Z " fill="#FDA866" transform="translate(341,454)"/>
<path d="M0 0 C1.32 0 2.64 0 4 0 C8.3317004 7.85894216 9.70278987 14.05114236 9 23 C8.01 23 7.02 23 6 23 C5.95101562 22.27554687 5.90203125 21.55109375 5.8515625 20.8046875 C5.44793848 15.58541133 4.98724193 10.90186342 3 6 C2.34 6 1.68 6 1 6 C0.67 4.02 0.34 2.04 0 0 Z " fill="#FEB591" transform="translate(165,454)"/>
<path d="M0 0 C0.99 0 1.98 0 3 0 C2.99476318 0.55985596 2.98952637 1.11971191 2.98413086 1.6965332 C2.96333309 4.23517737 2.95033096 6.77380359 2.9375 9.3125 C2.92912109 10.19357422 2.92074219 11.07464844 2.91210938 11.98242188 C2.90888672 12.82998047 2.90566406 13.67753906 2.90234375 14.55078125 C2.89710693 15.33106689 2.89187012 16.11135254 2.88647461 16.9152832 C2.91862137 19.1961555 2.91862137 19.1961555 4 22 C2.68 22.33 1.36 22.66 0 23 C-1.19219354 20.61561291 -1.12916022 19.12343998 -1.1328125 16.46484375 C-1.13410156 15.57345703 -1.13539063 14.68207031 -1.13671875 13.76367188 C-1.13285156 12.83103516 -1.12898438 11.89839844 -1.125 10.9375 C-1.12886719 10.00099609 -1.13273437 9.06449219 -1.13671875 8.09960938 C-1.13542969 7.20951172 -1.13414062 6.31941406 -1.1328125 5.40234375 C-1.13168457 4.58241943 -1.13055664 3.76249512 -1.12939453 2.91772461 C-1 1 -1 1 0 0 Z " fill="#FBA059" transform="translate(396,454)"/>
<path d="M0 0 C0 0.66 0 1.32 0 2 C-2.97 2.66 -5.94 3.32 -9 4 C-9 4.66 -9 5.32 -9 6 C-6.69 6 -4.38 6 -2 6 C-5.08888522 8.05925681 -5.70935927 8.2390374 -9.1875 8.125 C-11.0746875 8.063125 -11.0746875 8.063125 -13 8 C-13 7.67 -13 7.34 -13 7 C-24.22 6.67 -35.44 6.34 -47 6 C-47 5.67 -47 5.34 -47 5 C-46.09870361 4.9906543 -45.19740723 4.98130859 -44.26879883 4.97167969 C-40.85938277 4.92713214 -37.45112322 4.86528946 -34.04223633 4.79248047 C-32.57913271 4.76460573 -31.11588788 4.74322837 -29.65258789 4.72900391 C-20.69627249 4.63682913 -12.99774256 3.86925321 -4.44799805 0.84863281 C-2 0 -2 0 0 0 Z " fill="#FEAF81" transform="translate(199,421)"/>
<path d="M0 0 C0.33 0 0.66 0 1 0 C1.29230186 15.44328166 0.43900167 30.62449677 -1 46 C-1.33 46 -1.66 46 -2 46 C-2.41277905 14.88598505 -2.41277905 14.88598505 0 0 Z " fill="#F19849" transform="translate(38,339)"/>
<path d="M0 0 C2.0653204 3.40972707 2.25723464 6.06978086 2.265625 10.0234375 C2.26973389 11.20365479 2.27384277 12.38387207 2.27807617 13.59985352 C2.26417847 15.46855103 2.26417847 15.46855103 2.25 17.375 C2.24395752 18.63820068 2.23791504 19.90140137 2.23168945 21.20288086 C1.99258777 43.67119395 1.99258777 43.67119395 -1.57421875 47.83984375 C-2.04472656 48.22269531 -2.51523438 48.60554688 -3 49 C-2.68905914 46.45813394 -2.37629464 43.91651402 -2.0625 41.375 C-1.97548828 40.66214844 -1.88847656 39.94929688 -1.79882812 39.21484375 C-1.71181641 38.51230469 -1.62480469 37.80976563 -1.53515625 37.0859375 C-1.41732788 36.1276001 -1.41732788 36.1276001 -1.29711914 35.14990234 C-1.06589331 33.47679253 -0.7800034 31.81120355 -0.47265625 30.15039062 C0.01750782 26.88330531 0.11338061 23.80992903 0.09765625 20.5078125 C0.09443359 19.30898438 0.09121094 18.11015625 0.08789062 16.875 C0.07951172 15.6375 0.07113281 14.4 0.0625 13.125 C0.05798828 11.86429687 0.05347656 10.60359375 0.04882812 9.3046875 C0.0370796 6.20307614 0.02065167 3.10156275 0 0 Z " fill="#FFB795" transform="translate(235,329)"/>
<path d="M0 0 C1.65 0 3.3 0 5 0 C7.14762184 3.22143276 7.561068 4.2595467 7 8 C5.1875 9.8125 5.1875 9.8125 3 11 C2.01 11 1.02 11 0 11 C0 7.37 0 3.74 0 0 Z " fill="#F58731" transform="translate(311,455)"/>
<path d="M0 0 C1.65 0 3.3 0 5 0 C5.66 1.65 6.32 3.3 7 5 C6.34 5.66 5.68 6.32 5 7 C5.969375 7.2475 6.93875 7.495 7.9375 7.75 C11 9 11 9 11.875 10.75 C12.02817278 13.50711012 12.06274094 16.23939843 12 19 C11.67 19 11.34 19 11 19 C10.77570313 18.11054688 10.55140625 17.22109375 10.3203125 16.3046875 C8.77833363 12.44517826 7.02645022 10.79161172 3.875 8.125 C2.96492187 7.34382813 2.05484375 6.56265625 1.1171875 5.7578125 C0.41851562 5.17773438 -0.28015625 4.59765625 -1 4 C-0.67 2.68 -0.34 1.36 0 0 Z " fill="#F8882E" transform="translate(132,455)"/>
<path d="M0 0 C0.66 0 1.32 0 2 0 C1.98428955 0.6077124 1.9685791 1.2154248 1.95239258 1.84155273 C1.70287705 13.01921657 1.60744303 23.80589595 4.02075195 34.76928711 C4.75944285 38.15834779 5.26174469 40.69940958 4 44 C4 43.34 4 42.68 4 42 C3.34 42 2.68 42 2 42 C0.05615204 32.70371697 -0.24587901 23.71961629 -0.125 14.25 C-0.11493717 12.85938154 -0.10581723 11.46875592 -0.09765625 10.078125 C-0.07432595 6.71856181 -0.0415923 3.35937825 0 0 Z " fill="#FFB694" transform="translate(305,332)"/>
<path d="M0 0 C0.75 1.5625 0.75 1.5625 1 4 C-1.20099197 8.72805683 -2.34360265 10.75208404 -7 13 C-7.165 13.825 -7.33 14.65 -7.5 15.5 C-7.665 16.325 -7.83 17.15 -8 18 C-10 19.125 -10 19.125 -12 20 C-12.33 20.99 -12.66 21.98 -13 23 C-14.65 23.33 -16.3 23.66 -18 24 C-17.175 23.05125 -16.35 22.1025 -15.5 21.125 C-6.93249673 11.1354547 -6.93249673 11.1354547 0 0 Z " fill="#FEB087" transform="translate(436,392)"/>
<path d="M0 0 C3.63 0 7.26 0 11 0 C11.66 0.66 12.32 1.32 13 2 C12.34 2 11.68 2 11 2 C10.67 2.66 10.34 3.32 10 4 C9.67 3.34 9.34 2.68 9 2 C7.35 1.67 5.7 1.34 4 1 C4 4.63 4 8.26 4 12 C3.67 12 3.34 12 3 12 C3 8.37 3 4.74 3 1 C2.34 1 1.68 1 1 1 C1 7.93 1 14.86 1 22 C1.66 22 2.32 22 3 22 C3 19.03 3 16.06 3 13 C3.33 13 3.66 13 4 13 C4 16.3 4 19.6 4 23 C2.68 23 1.36 23 0 23 C0 15.41 0 7.82 0 0 Z " fill="#FFB27F" transform="translate(307,454)"/>
<path d="M0 0 C1.8125 1.375 1.8125 1.375 3 3 C3 3.66 3 4.32 3 5 C4.32 5 5.64 5 7 5 C7.33 4.34 7.66 3.68 8 3 C8 3.99 8 4.98 8 6 C7.34 6 6.68 6 6 6 C6 6.99 6 7.98 6 9 C7.32 9 8.64 9 10 9 C9.67 9.66 9.34 10.32 9 11 C5.37 10.67 1.74 10.34 -2 10 C-0.68 9.67 0.64 9.34 2 9 C1.67 8.401875 1.34 7.80375 1 7.1875 C0 5 0 5 0 2 C-0.928125 2.309375 -1.85625 2.61875 -2.8125 2.9375 C-4.875 3.625 -6.9375 4.3125 -9 5 C-9 4.34 -9 3.68 -9 3 C-8.34 3 -7.68 3 -7 3 C-7 2.34 -7 1.68 -7 1 C-4.45132831 -0.27433584 -2.82594567 -0.27570202 0 0 Z " fill="#F88933" transform="translate(242,455)"/>
<path d="M0 0 C2.64 0 5.28 0 8 0 C8 0.66 8 1.32 8 2 C9.98 1.67 11.96 1.34 14 1 C14 1.99 14 2.98 14 4 C16.31 4 18.62 4 21 4 C21 4.66 21 5.32 21 6 C22.98 6.66 24.96 7.32 27 8 C27 8.99 27 9.98 27 11 C23.07274309 9.83243713 19.44743867 8.30370516 15.75 6.5625 C10.61628363 4.18225839 5.46110438 2.45708425 0 1 C0 0.67 0 0.34 0 0 Z " fill="#F68C36" transform="translate(402,261)"/>
<path d="M0 0 C0.99 0 1.98 0 3 0 C3.66 1.98 4.32 3.96 5 6 C7.31 6.33 9.62 6.66 12 7 C11.938125 6.21625 11.87625 5.4325 11.8125 4.625 C11.874375 3.75875 11.93625 2.8925 12 2 C12.99 1.34 13.98 0.68 15 0 C15.1875 3.375 15.1875 3.375 15 7 C11.2626144 9.4915904 9.42668417 9.45793285 5 9 C2.05113144 7.20503653 0.41494699 6.03736747 -0.875 2.8125 C-0.91625 2.214375 -0.9575 1.61625 -1 1 C-0.67 0.67 -0.34 0.34 0 0 Z " fill="#FEAC73" transform="translate(128,469)"/>
<path d="M0 0 C0.66 0 1.32 0 2 0 C2 7.59 2 15.18 2 23 C0.68 22.67 -0.64 22.34 -2 22 C-1.34 22 -0.68 22 0 22 C-0.66 20.02 -1.32 18.04 -2 16 C-1.34 16 -0.68 16 0 16 C0 10.72 0 5.44 0 0 Z " fill="#FDA660" transform="translate(223,454)"/>
<path d="M0 0 C0.66 0 1.32 0 2 0 C2 0.66 2 1.32 2 2 C2.66 2 3.32 2 4 2 C4.66 1.34 5.32 0.68 6 0 C8.61382886 3.92074329 8.29386386 7.44511017 8 12 C7.34 12.66 6.68 13.32 6 14 C5.67 11.69 5.34 9.38 5 7 C4.67 7.99 4.34 8.98 4 10 C3.34 10 2.68 10 2 10 C2 7.69 2 5.38 2 3 C1.34 3 0.68 3 0 3 C0 2.01 0 1.02 0 0 Z " fill="#FA8A2E" transform="translate(292,458)"/>
<path d="M0 0 C2.6015625 0.2421875 2.6015625 0.2421875 5.625 0.875 C6.62789062 1.07867187 7.63078125 1.28234375 8.6640625 1.4921875 C9.43492187 1.65976562 10.20578125 1.82734375 11 2 C11 2.33 11 2.66 11 3 C8.69 3 6.38 3 4 3 C4 3.66 4 4.32 4 5 C0.12813552 6.44715727 -2.8232328 5.5441918 -6.75 4.5625 C-7.92046875 4.27503906 -9.0909375 3.98757813 -10.296875 3.69140625 C-11.18890625 3.46324219 -12.0809375 3.23507812 -13 3 C-13 2.67 -13 2.34 -13 2 C-12.22914063 2.02320313 -11.45828125 2.04640625 -10.6640625 2.0703125 C-9.15972656 2.09738281 -9.15972656 2.09738281 -7.625 2.125 C-6.62726563 2.14820313 -5.62953125 2.17140625 -4.6015625 2.1953125 C-1.83737827 2.27216848 -1.83737827 2.27216848 0 0 Z " fill="#FEB28E" transform="translate(193,264)"/>
<path d="M0 0 C0.66 0 1.32 0 2 0 C6.42551856 9.903709 8.35542134 19.159649 8 30 C7.67 30 7.34 30 7 30 C6.82984375 28.90042969 6.6596875 27.80085938 6.484375 26.66796875 C5.21312803 18.80084751 3.79501642 11.42597662 0.76953125 4.00390625 C0 2 0 2 0 0 Z " fill="#FEB18B" transform="translate(227,299)"/>
<path d="M0 0 C0.33 0 0.66 0 1 0 C1.33 6.93 1.66 13.86 2 21 C1.01 21 0.02 21 -1 21 C-1.02895976 17.87501937 -1.04678483 14.7500731 -1.0625 11.625 C-1.07087891 10.73554688 -1.07925781 9.84609375 -1.08789062 8.9296875 C-1.09111328 8.07890625 -1.09433594 7.228125 -1.09765625 6.3515625 C-1.10289307 5.56604004 -1.10812988 4.78051758 -1.11352539 3.97119141 C-1 2 -1 2 0 0 Z " fill="#FFB99A" transform="translate(263,456)"/>
<path d="M0 0 C-0.33 0.99 -0.66 1.98 -1 3 C-1.99 2.67 -2.98 2.34 -4 2 C-11.0639496 1.40658259 -16.54931742 2.07893619 -23 5 C-22.65234375 3.078125 -22.65234375 3.078125 -22 1 C-15.40336366 -2.38289043 -7.04948022 -1.4841011 0 0 Z " fill="#F58930" transform="translate(385,412)"/>
<path d="M0 0 C2.31 0 4.62 0 7 0 C7 7.26 7 14.52 7 22 C6.67 22 6.34 22 6 22 C6 15.4 6 8.8 6 2 C4.35 2.33 2.7 2.66 1 3 C-0.36020151 4.96758273 -0.36020151 4.96758273 -1 7 C-2.32 6.34 -3.64 5.68 -5 5 C-4.01 5 -3.02 5 -2 5 C-2 4.01 -2 3.02 -2 2 C-1.34 2 -0.68 2 0 2 C0 1.34 0 0.68 0 0 Z " fill="#F5882E" transform="translate(144,455)"/>
<path d="M0 0 C3.375 4.5 3.375 4.5 3.07421875 8.546875 C3.01943359 9.39121094 2.96464844 10.23554688 2.90820312 11.10546875 C2.83537109 11.97816406 2.76253906 12.85085938 2.6875 13.75 C2.62626953 14.63816406 2.56503906 15.52632813 2.50195312 16.44140625 C2.34905186 18.62907044 2.18127554 20.81453442 2 23 C1.34 23 0.68 23 0 23 C0 15.41 0 7.82 0 0 Z " fill="#FEA65B" transform="translate(207,454)"/>
<path d="M0 0 C0.66 0 1.32 0 2 0 C2.7938642 7.21805755 3.07875823 13.80827843 2 21 C1.34 21 0.68 21 0 21 C0 14.07 0 7.14 0 0 Z " fill="#FEB99D" transform="translate(308,455)"/>
<path d="M0 0 C0.66 0 1.32 0 2 0 C1.03727407 3.11034533 0.07871669 5.8646073 -1.5625 8.6875 C-3.58956267 13.35855747 -3.73970253 17.95561448 -4 23 C-4.33 23 -4.66 23 -5 23 C-5.24878997 20.56305726 -5.47463404 18.12761611 -5.6875 15.6875 C-5.79674805 14.65206055 -5.79674805 14.65206055 -5.90820312 13.59570312 C-6.33201402 8.43518222 -6.33201402 8.43518222 -4.6171875 6.1875 C-3.81667969 5.5996875 -3.81667969 5.5996875 -3 5 C-2.484375 4.113125 -1.96875 3.22625 -1.4375 2.3125 C-0.7259375 1.1678125 -0.7259375 1.1678125 0 0 Z " fill="#FDA461" transform="translate(179,454)"/>
<path d="M0 0 C0.66 0.33 1.32 0.66 2 1 C-0.52631579 3.90526316 -0.52631579 3.90526316 -2.875 4.375 C-6.10826433 5.3259601 -7.7482937 7.57052741 -10 10 C-10.66 10.66 -11.32 11.32 -12 12 C-12.99 12 -13.98 12 -15 12 C-13.51026819 8.18729656 -11.41336174 6.58085134 -8.0625 4.3125 C-7.18722656 3.71050781 -6.31195313 3.10851562 -5.41015625 2.48828125 C-3 1 -3 1 0 0 Z " fill="#F78D3A" transform="translate(347,269)"/>
<path d="M0 0 C0.5625 1.9375 0.5625 1.9375 1 4 C0.67 4.33 0.34 4.66 0 5 C0.39372451 10.86892751 0.39372451 10.86892751 3 16 C6.56769552 16.73606499 6.56769552 16.73606499 10 17 C9.67 17.66 9.34 18.32 9 19 C5.08398866 18.77407627 2.67397624 18.53572471 -0.4375 16.0625 C-2.62769108 11.76972548 -2.69110826 7.74132411 -2 3 C-1.34 2.01 -0.68 1.02 0 0 Z " fill="#F58B36" transform="translate(284,458)"/>
<path d="M0 0 C2.4375 1.3125 2.4375 1.3125 4 3 C4 3.99 4 4.98 4 6 C3.01 6 2.02 6 1 6 C0.34 4.68 -0.32 3.36 -1 2 C-2.65 2 -4.3 2 -6 2 C-6.66 3.98 -7.32 5.96 -8 8 C-8.66 7.67 -9.32 7.34 -10 7 C-10.1875 4.625 -10.1875 4.625 -10 2 C-6.28986601 -0.47342266 -4.38939738 -0.38503486 0 0 Z " fill="#FEAF75" transform="translate(138,454)"/>
<path d="M0 0 C4.13621084 3.3810038 7.81316569 6.66590534 11 11 C8.83125748 10.49396008 7.00032373 10.00016187 5 9 C4.67 8.01 4.34 7.02 4 6 C2.35 6.33 0.7 6.66 -1 7 C-1.33 5.35 -1.66 3.7 -2 2 C-1.34 2 -0.68 2 0 2 C0 1.34 0 0.68 0 0 Z " fill="#F3892C" transform="translate(485,176)"/>
<path d="M0 0 C0.33 0 0.66 0 1 0 C1 6.6 1 13.2 1 20 C-2 20 -2 20 -4 19 C-3.01 17.515 -3.01 17.515 -2 16 C-1.75849227 13.48415109 -1.75849227 13.48415109 -1.875 10.8125 C-1.89304687 9.91144531 -1.91109375 9.01039063 -1.9296875 8.08203125 C-1.95289063 7.39496094 -1.97609375 6.70789063 -2 6 C-1.34 6 -0.68 6 0 6 C0 4.02 0 2.04 0 0 Z " fill="#F7872E" transform="translate(305,454)"/>
<path d="M0 0 C2.64 0.66 5.28 1.32 8 2 C8 2.66 8 3.32 8 4 C12.95 4.99 17.9 5.98 23 7 C22.67 8.32 22.34 9.64 22 11 C22 10.01 22 9.02 22 8 C20.0509375 7.8453125 20.0509375 7.8453125 18.0625 7.6875 C11.95509193 6.99391423 6.19043119 5.86988029 1.4375 1.8125 C0.963125 1.214375 0.48875 0.61625 0 0 Z " fill="#F99040" transform="translate(410,442)"/>
<path d="M0 0 C0.33 0 0.66 0 1 0 C1.37369729 7.47394574 0.04061541 13.82140651 -2 21 C-2.33 21 -2.66 21 -3 21 C-2.88588196 18.24915453 -2.75914051 15.49988053 -2.625 12.75 C-2.5940625 11.97269531 -2.563125 11.19539063 -2.53125 10.39453125 C-2.16618114 3.27568856 -2.16618114 3.27568856 0 0 Z " fill="#FEB086" transform="translate(257,355)"/>
<path d="M0 0 C0.33 1.32 0.66 2.64 1 4 C1.66 4 2.32 4 3 4 C2.8125 5.875 2.8125 5.875 2 8 C-0.5625 9.25 -0.5625 9.25 -3 10 C-3 10.66 -3 11.32 -3 12 C-3.66 12 -4.32 12 -5 12 C-3.68938409 7.76570244 -2.05643741 3.92592596 0 0 Z " fill="#F28E35" transform="translate(68,244)"/>
<path d="M0 0 C1.62659769 4.84682148 -0.14311472 8.44292784 -2 13 C-3.5625 16.0625 -3.5625 16.0625 -5 18 C-5.66 18 -6.32 18 -7 18 C-5.64474464 13.78224268 -4.09799886 9.70578678 -2.375 5.625 C-1.92898437 4.56539063 -1.48296875 3.50578125 -1.0234375 2.4140625 C-0.68570313 1.61742187 -0.34796875 0.82078125 0 0 Z " fill="#FEB38C" transform="translate(231,380)"/>
<path d="M0 0 C0.33 0.99 0.66 1.98 1 3 C-0.14453125 4.68359375 -0.14453125 4.68359375 -1.8125 6.4375 C-4.07154124 8.83605447 -5.64287178 10.98783737 -7 14 C-7.99 14 -8.98 14 -10 14 C-8.38798165 8.2683792 -4.12110332 4.12110332 0 0 Z " fill="#F68A2A" transform="translate(331,281)"/>
<path d="M0 0 C0.99 0.66 1.98 1.32 3 2 C1.52351062 3.33629746 0.0437367 4.66896671 -1.4375 6 C-2.26121094 6.7425 -3.08492188 7.485 -3.93359375 8.25 C-6 10 -6 10 -7 10 C-6.67 7.69 -6.34 5.38 -6 3 C-4.02 3 -2.04 3 0 3 C0 2.01 0 1.02 0 0 Z " fill="#F08D30" transform="translate(480,569)"/>
<path d="M0 0 C0.33 0 0.66 0 1 0 C1 5.28 1 10.56 1 16 C-2.75376152 14.74874616 -3.24073289 13.4347596 -5 10 C-5 9.34 -5 8.68 -5 8 C-4.34 8 -3.68 8 -3 8 C-2.67 8.66 -2.34 9.32 -2 10 C-1.34 10 -0.68 10 0 10 C0 6.7 0 3.4 0 0 Z " fill="#F6872E" transform="translate(222,454)"/>
<path d="M0 0 C0.66 0 1.32 0 2 0 C1.91276622 1.77174819 1.80458345 3.54247377 1.6875 5.3125 C1.62949219 6.29863281 1.57148438 7.28476562 1.51171875 8.30078125 C0.94881563 11.26998781 0.45936633 12.2883745 -2 14 C-2.99 14 -3.98 14 -5 14 C-3.5 11 -3.5 11 -2 8 C-1.34 8 -0.68 8 0 8 C0 5.36 0 2.72 0 0 Z " fill="#FFBAA0" transform="translate(301,462)"/>
<path d="M0 0 C0.90105469 0.00902344 1.80210937 0.01804687 2.73046875 0.02734375 C3.41753906 0.03894531 4.10460937 0.05054688 4.8125 0.0625 C4.1525 0.7225 3.4925 1.3825 2.8125 2.0625 C1.45125 1.9696875 1.45125 1.9696875 0.0625 1.875 C-4.49128089 2.13771813 -5.85939868 4.03695335 -9.1875 7.0625 C-9.8475 7.0625 -10.5075 7.0625 -11.1875 7.0625 C-12.1775 7.5575 -12.1775 7.5575 -13.1875 8.0625 C-11.89739008 5.18456249 -10.61388194 3.10066083 -8.1875 1.0625 C-5.17259443 0.05753148 -3.14568308 -0.04085303 0 0 Z " fill="#FEAB73" transform="translate(291.1875,453.9375)"/>
<path d="M0 0 C-1.80597656 0.63228516 -1.80597656 0.63228516 -3.6484375 1.27734375 C-5.22398257 1.83066017 -6.79950208 2.38404936 -8.375 2.9375 C-9.1690625 3.21529297 -9.963125 3.49308594 -10.78125 3.77929688 C-11.54179687 4.04677734 -12.30234375 4.31425781 -13.0859375 4.58984375 C-14.1385376 4.95903931 -14.1385376 4.95903931 -15.21240234 5.33569336 C-17.06505095 5.98767764 -17.06505095 5.98767764 -19 7 C-18.67 5.68 -18.34 4.36 -18 3 C-15.75376301 2.30030318 -13.50283586 1.61564957 -11.25 0.9375 C-9.99703125 0.55464844 -8.7440625 0.17179687 -7.453125 -0.22265625 C-4.15477777 -0.96515749 -3.06693411 -0.94299411 0 0 Z " fill="#FEB38D" transform="translate(420,426)"/>
<path d="M0 0 C0.66 0.33 1.32 0.66 2 1 C-2.78996929 5.47063801 -9.18144123 8.85150049 -15.8125 9.109375 C-16.534375 9.07328125 -17.25625 9.0371875 -18 9 C-15.32509121 7.21672748 -13.10195317 6.18903699 -10.125 5.0625 C-7.19506315 3.92640204 -4.70120104 2.81947563 -2 1.1875 C-1.34 0.795625 -0.68 0.40375 0 0 Z " fill="#F68E3B" transform="translate(425,422)"/>
<path d="M0 0 C1 2 1 2 0.9375 3.875 C-0.47053227 7.06653981 -3.12874829 8.12489684 -6 10 C-7.38868516 12.10039331 -7.38868516 12.10039331 -8 14 C-8.99 13.67 -9.98 13.34 -11 13 C-9.54300902 11.20724155 -8.08436345 9.41582771 -6.625 7.625 C-5.40683594 6.12839844 -5.40683594 6.12839844 -4.1640625 4.6015625 C-2 2 -2 2 0 0 Z " fill="#F0913D" transform="translate(102,196)"/>
<path d="M0 0 C-3.38709075 2.2580605 -5.96642159 2.79994908 -9.9375 3.625 C-11.16339844 3.88539063 -12.38929688 4.14578125 -13.65234375 4.4140625 C-17 5 -17 5 -21 5 C-21 4.34 -21 3.68 -21 3 C-18.94921875 2.77213542 -16.8984375 2.54427083 -14.84765625 2.31640625 C-12.98859771 2.18113386 -12.98859771 2.18113386 -12 1 C-7.96497918 0.30163101 -4.09439083 -0.12407245 0 0 Z " fill="#EC9749" transform="translate(373,630)"/>
<path d="M0 0 C0.33 1.32 0.66 2.64 1 4 C0.34 4 -0.32 4 -1 4 C-0.7525 4.556875 -0.505 5.11375 -0.25 5.6875 C0 8 0 8 -1.9375 10.75 C-2.618125 11.4925 -3.29875 12.235 -4 13 C-4.99 12.67 -5.98 12.34 -7 12 C-4.69 8.04 -2.38 4.08 0 0 Z " fill="#F28E35" transform="translate(76,231)"/>
<path d="M0 0 C-6.02215104 4.01476736 -11.99943109 4.28573751 -19 4 C-12.65787037 0.71863728 -7.05290803 -0.24747046 0 0 Z " fill="#FEF7E5" transform="translate(381,630)"/>
<path d="M0 0 C0.33 0 0.66 0 1 0 C1.09375315 4.98975076 1.09676756 9.96080644 0.6875 14.9375 C0.62949219 15.64777344 0.57148438 16.35804688 0.51171875 17.08984375 C-0.11920614 19.44497557 -1.17125165 20.43600342 -3 22 C-2.68905914 19.45813394 -2.37629464 16.91651402 -2.0625 14.375 C-1.97548828 13.66214844 -1.88847656 12.94929688 -1.79882812 12.21484375 C-1.29217395 8.12408039 -0.7110957 4.06157365 0 0 Z " fill="#FEB187" transform="translate(235,356)"/>
<path d="M0 0 C1.32 0 2.64 0 4 0 C4 2.64 4 5.28 4 8 C2.68 8 1.36 8 0 8 C0 5.36 0 2.72 0 0 Z " fill="#FEB38B" transform="translate(318,456)"/>
<path d="M0 0 C-2.99409596 1.01839999 -5.99499309 2.01428117 -9 3 C-9.99773437 3.33644531 -9.99773437 3.33644531 -11.015625 3.6796875 C-14.46767041 4.7753367 -16.56074298 5.04445983 -20 4 C-18.27255984 3.34956281 -16.5429631 2.70485156 -14.8125 2.0625 C-13.84957031 1.70285156 -12.88664062 1.34320313 -11.89453125 0.97265625 C-7.59218022 -0.47307304 -4.40095396 -1.46698465 0 0 Z " fill="#FDA974" transform="translate(358,261)"/>
<path d="M0 0 C0.33 0 0.66 0 1 0 C1.53107314 2.74837849 2.05015881 5.49812375 2.5625 8.25 C2.71396484 9.02730469 2.86542969 9.80460937 3.02148438 10.60546875 C3.16005859 11.35957031 3.29863281 12.11367188 3.44140625 12.890625 C3.57232666 13.58188477 3.70324707 14.27314453 3.83813477 14.98535156 C4.01710362 17.21287942 3.65206197 18.87506962 3 21 C3 20.34 3 19.68 3 19 C2.34 19 1.68 19 1 19 C0.17648136 12.61773055 -0.12086218 6.43255401 0 0 Z " fill="#FEAF82" transform="translate(306,355)"/>
<path d="M0 0 C0.33 0.66 0.66 1.32 1 2 C0.00390625 4.3828125 0.00390625 4.3828125 -1.4375 7.125 C-1.91058594 8.03507812 -2.38367188 8.94515625 -2.87109375 9.8828125 C-3.24363281 10.58148438 -3.61617188 11.28015625 -4 12 C-4.66 12 -5.32 12 -6 12 C-6 13.32 -6 14.64 -6 16 C-6.99 16.33 -7.98 16.66 -9 17 C-7.46933687 11.18348012 -4.32262613 4.32262613 0 0 Z " fill="#FEB085" transform="translate(299,295)"/>
<path d="M0 0 C3.91939465 3.80411834 7.49102731 7.81576108 11 12 C8 12 8 12 5.95703125 10.13671875 C5.24933594 9.32847656 4.54164063 8.52023438 3.8125 7.6875 C3.09707031 6.88699219 2.38164062 6.08648437 1.64453125 5.26171875 C0 3 0 3 0 0 Z " fill="#FFF7E6" transform="translate(502,190)"/>
<path d="M0 0 C0.66 0.33 1.32 0.66 2 1 C2.59355614 3.64860427 2.74209269 6.29197322 3 9 C1.35 9 -0.3 9 -2 9 C-1.34 6.03 -0.68 3.06 0 0 Z " fill="#F68A34" transform="translate(342,459)"/>
<path d="M0 0 C2.475 0.495 2.475 0.495 5 1 C5 2.65 5 4.3 5 6 C3.35 6.33 1.7 6.66 0 7 C0 4.69 0 2.38 0 0 Z " fill="#FC861E" transform="translate(313,457)"/>
<path d="M0 0 C-1.39176632 0.96423026 -2.7886223 1.92111602 -4.1875 2.875 C-4.96480469 3.40867187 -5.74210937 3.94234375 -6.54296875 4.4921875 C-8.9676609 5.98015439 -11.3333499 7.02428078 -14 8 C-14 7.34 -14 6.68 -14 6 C-13.34 6 -12.68 6 -12 6 C-12 5.34 -12 4.68 -12 4 C-10.68 4 -9.36 4 -8 4 C-8 3.01 -8 2.02 -8 1 C-2.25 -1.125 -2.25 -1.125 0 0 Z " fill="#ED923D" transform="translate(452,595)"/>
<path d="M0 0 C-1.49097658 3.7952131 -3.75700849 5.61042731 -7 8 C-7.36275695 3.52599758 -7.36275695 3.52599758 -5.75 1.1875 C-4 0 -4 0 0 0 Z " fill="#F2933D" transform="translate(498,555)"/>
<path d="M0 0 C1.32 0.33 2.64 0.66 4 1 C3.67 1.66 3.34 2.32 3 3 C2.835 3.66 2.67 4.32 2.5 5 C2 7 2 7 1 9 C-1.64 8.34 -4.28 7.68 -7 7 C-6.67 6.34 -6.34 5.68 -6 5 C-4.35 5.33 -2.7 5.66 -1 6 C-0.67 4.02 -0.34 2.04 0 0 Z " fill="#F9892B" transform="translate(226,471)"/>
<path d="M0 0 C3.88223287 1.47257109 4.97571082 3.47949708 7 7 C7.99 7.66 8.98 8.32 10 9 C7.087425 8.91433603 5.43201976 8.42089045 3.33203125 6.375 C1.83908228 4.61608625 0.39563738 2.83686981 -1 1 C-0.67 0.67 -0.34 0.34 0 0 Z " fill="#F7882C" transform="translate(392,417)"/>
<path d="M0 0 C1 2 1 2 0.3125 4.375 C-1.1208052 7.2416104 -2.64172527 8.84980833 -5 11 C-6.11375 12.11375 -6.11375 12.11375 -7.25 13.25 C-7.8275 13.8275 -8.405 14.405 -9 15 C-7.61219205 11.10993227 -5.7847773 8.03441292 -3.375 4.6875 C-2.74335937 3.80449219 -2.11171875 2.92148438 -1.4609375 2.01171875 C-0.97882813 1.34785156 -0.49671875 0.68398437 0 0 Z " fill="#F09342" transform="translate(86,216)"/>
<path d="M0 0 C0.66 0.33 1.32 0.66 2 1 C0.78575607 2.49144105 -0.44706045 3.96777403 -1.6875 5.4375 C-2.37199219 6.26121094 -3.05648437 7.08492187 -3.76171875 7.93359375 C-6.24022612 10.22177944 -7.69136813 10.68130516 -11 11 C-7.6381774 6.74828319 -4.25171681 3.3618226 0 0 Z " fill="#EF903D" transform="translate(137,162)"/>
<path d="M0 0 C0 3 0 3 -1.75 5.04296875 C-2.4925 5.75066406 -3.235 6.45835937 -4 7.1875 C-4.7425 7.90292969 -5.485 8.61835937 -6.25 9.35546875 C-6.8275 9.89816406 -7.405 10.44085937 -8 11 C-8.33 10.01 -8.66 9.02 -9 8 C-7.87811441 6.85111717 -6.75238316 5.70598863 -5.625 4.5625 C-4.99851562 3.92441406 -4.37203125 3.28632812 -3.7265625 2.62890625 C-2 1 -2 1 0 0 Z " fill="#FFFBEB" transform="translate(500,555)"/>
<path d="M0 0 C0 0.66 0 1.32 0 2 C0.66 2.33 1.32 2.66 2 3 C-5.42857143 2 -5.42857143 2 -9 1 C-9 0.34 -9 -0.32 -9 -1 C-5.38055101 -2.34053666 -3.42632833 -1.61798838 0 0 Z " fill="#FDB9A6" transform="translate(358,428)"/>
<path d="M0 0 C1.62746924 5.17096611 0.04405635 9.67987477 -2.125 14.5 C-2.41375 14.995 -2.7025 15.49 -3 16 C-4.10844919 12.67465243 -3.84454356 10.37817425 -3 7 C-2.34 7 -1.68 7 -1 7 C-0.67 4.69 -0.34 2.38 0 0 Z " fill="#FEB183" transform="translate(289,313)"/>
<path d="M0 0 C1.72985242 0.11512153 3.45888751 0.24255677 5.1875 0.375 C6.15042969 0.44460937 7.11335938 0.51421875 8.10546875 0.5859375 C11.01508938 1.00215853 13.32890774 1.79874096 16 3 C16 3.66 16 4.32 16 5 C10.60204011 3.84941444 5.29012667 2.57578241 0 1 C0 0.67 0 0.34 0 0 Z " fill="#FDE4C3" transform="translate(372,113)"/>
<path d="M0 0 C0.66 0 1.32 0 2 0 C1.67 1.32 1.34 2.64 1 4 C-3.8333472 4.08333357 -8.23692563 3.95261487 -13 3 C-13 2.67 -13 2.34 -13 2 C-8.71 2 -4.42 2 0 2 C0 1.34 0 0.68 0 0 Z " fill="#F58930" transform="translate(385,475)"/>
<path d="M0 0 C0.33 1.32 0.66 2.64 1 4 C0.01 4.33 -0.98 4.66 -2 5 C-3.69882448 7.49759982 -3.69882448 7.49759982 -5 10 C-5.99 9.67 -6.98 9.34 -8 9 C-7.04270084 7.87411986 -6.08412105 6.7493285 -5.125 5.625 C-4.59132812 4.99851562 -4.05765625 4.37203125 -3.5078125 3.7265625 C-2.38567993 2.44163349 -1.20628025 1.20628025 0 0 Z " fill="#F98E38" transform="translate(238,405)"/>
<path d="M0 0 C-3.12781414 2.52631142 -6.29577411 4.42373366 -10 6 C-10.99 5.67 -11.98 5.34 -13 5 C-8.68660704 1.42677506 -5.86197356 -0.71487482 0 0 Z " fill="#EF8E39" transform="translate(423,611)"/>
<path d="M0 0 C4.455 0.99 4.455 0.99 9 2 C9 5.3 9 8.6 9 12 C8.67 12 8.34 12 8 12 C7.79375 11.113125 7.5875 10.22625 7.375 9.3125 C5.61821033 5.08023397 3.60491711 3.74287171 0 1 C0 0.67 0 0.34 0 0 Z " fill="#F88E3B" transform="translate(135,462)"/>
<path d="M0 0 C4.94151304 2.40016348 7.04331244 5.52273027 10 10 C9.01 10.33 8.02 10.66 7 11 C6.67 10.01 6.34 9.02 6 8 C5.01 7.34 4.02 6.68 3 6 C2.67 5.01 2.34 4.02 2 3 C1.34 2.67 0.68 2.34 0 2 C0 1.34 0 0.68 0 0 Z " fill="#FEAF85" transform="translate(233,282)"/>
<path d="M0 0 C2.37616467 2.37616467 3.04068181 4.35349521 4.1875 7.5 C4.55230469 8.4796875 4.91710937 9.459375 5.29296875 10.46875 C6 13 6 13 5 15 C2.90250005 12.64031256 2.03094296 11.45383006 1.8125 8.25 C1.874375 7.5075 1.93625 6.765 2 6 C1.34 6 0.68 6 0 6 C0 4.02 0 2.04 0 0 Z " fill="#F19748" transform="translate(551,271)"/>
<path d="M0 0 C2.94721162 2.74395564 5.19168608 5.38337216 7 9 C6.67 9.66 6.34 10.32 6 11 C5.67 10.01 5.34 9.02 5 8 C2.98491642 7.26676204 2.98491642 7.26676204 1 7 C0.67 4.69 0.34 2.38 0 0 Z " fill="#ED8F39" transform="translate(523,220)"/>
<path d="M0 0 C0.33 0.66 0.66 1.32 1 2 C0.67 2.99 0.34 3.98 0 5 C-0.66 5 -1.32 5 -2 5 C-2.66 6.32 -3.32 7.64 -4 9 C-5.32 8.67 -6.64 8.34 -8 8 C-5.36 5.36 -2.72 2.72 0 0 Z " fill="#F08F37" transform="translate(115,182)"/>
<path d="M0 0 C0.33 0 0.66 0 1 0 C1.33 3.96 1.66 7.92 2 12 C1.01 11.67 0.02 11.34 -1 11 C-1.02688151 9.35425434 -1.04634123 7.70838587 -1.0625 6.0625 C-1.07410156 5.14597656 -1.08570313 4.22945313 -1.09765625 3.28515625 C-1 1 -1 1 0 0 Z " fill="#FEB8A1" transform="translate(230,461)"/>
<path d="M0 0 C6.0546875 -0.1953125 6.0546875 -0.1953125 8 0 C8.66 0.66 9.32 1.32 10 2 C9.34 2 8.68 2 8 2 C7.67 2.66 7.34 3.32 7 4 C6.67 3.34 6.34 2.68 6 2 C4.35 1.67 2.7 1.34 1 1 C1 4.63 1 8.26 1 12 C0.67 12 0.34 12 0 12 C0 8.04 0 4.08 0 0 Z " fill="#FEA96E" transform="translate(310,454)"/>
<path d="M0 0 C1.06751688 3.30421892 0.98942604 4.03172187 -0.1875 7.5625 C-1.89083122 10.79295577 -2.91363322 12.19075051 -6 14 C-4.16508812 9.25981099 -2.08058541 4.63586749 0 0 Z " fill="#F78E3C" transform="translate(251,384)"/>
<path d="M0 0 C0.33 0 0.66 0 1 0 C0.43179252 5.45479185 -0.94637945 9.91059256 -3 15 C-3.33 15 -3.66 15 -4 15 C-4.59720137 9.17728663 -2.528243 5.0790596 0 0 Z " fill="#F98B39" transform="translate(231,375)"/>
<path d="M0 0 C2.83597257 5.57971839 3.10375377 9.77477369 3 16 C2.67 16 2.34 16 2 16 C-0.27141454 10.60539047 -0.20413361 5.73842251 0 0 Z " fill="#FEAD81" transform="translate(255,320)"/>
<path d="M0 0 C0.33 0 0.66 0 1 0 C1.25 6.625 1.25 6.625 -1 10 C-1.38499891 11.65549531 -1.72793135 13.3222433 -2 15 C-2.66 15 -3.32 15 -4 15 C-3.52229477 13.06213915 -3.04278429 11.12472326 -2.5625 9.1875 C-2.29566406 8.10855469 -2.02882812 7.02960938 -1.75390625 5.91796875 C-1.23922588 3.9259157 -0.65062825 1.95188476 0 0 Z " fill="#EE984B" transform="translate(50,285)"/>
<path d="M0 0 C2.8125 0.1875 2.8125 0.1875 6 1 C7.75 3.375 7.75 3.375 9 6 C9.99 7.485 9.99 7.485 11 9 C8.03469503 7.64199529 5.70868729 6.07571737 3.25 3.9375 C2.63640625 3.41027344 2.0228125 2.88304687 1.390625 2.33984375 C0.93171875 1.89769531 0.4728125 1.45554687 0 1 C0 0.67 0 0.34 0 0 Z " fill="#EE984C" transform="translate(125,571)"/>
<path d="M0 0 C0.75925781 0.08378906 1.51851563 0.16757812 2.30078125 0.25390625 C3.29464844 0.35574219 4.28851563 0.45757812 5.3125 0.5625 C6.29863281 0.66691406 7.28476562 0.77132813 8.30078125 0.87890625 C11.09930347 1.16602527 11.09930347 1.16602527 14 0 C14.66 0.66 15.32 1.32 16 2 C13.22947819 2.92350727 11.43311242 3.16329585 8.5625 3.1875 C7.80066406 3.20167969 7.03882813 3.21585937 6.25390625 3.23046875 C3.76652685 2.97612666 2.15191894 2.24017196 0 1 C0 0.67 0 0.34 0 0 Z " fill="#FEA45F" transform="translate(282,475)"/>
<path d="M0 0 C1.32 0 2.64 0 4 0 C3.67 0.99 3.34 1.98 3 3 C2.34 3 1.68 3 1 3 C0.5978125 4.1446875 0.5978125 4.1446875 0.1875 5.3125 C-0.94424112 7.87380884 -1.91223401 9.19692938 -4 11 C-3.34 8.69 -2.68 6.38 -2 4 C-1.34 4 -0.68 4 0 4 C0 2.68 0 1.36 0 0 Z " fill="#FEAF86" transform="translate(323,285)"/>
<path d="M0 0 C1.98 0 3.96 0 6 0 C4.6875 2.5 4.6875 2.5 3 5 C2.01 5 1.02 5 0 5 C-0.33 4.34 -0.66 3.68 -1 3 C-0.67 2.01 -0.34 1.02 0 0 Z " fill="#F48C28" transform="translate(514,529)"/>
<path d="M0 0 C2.04119788 1.61594832 4.04072937 3.2856382 6 5 C6 5.66 6 6.32 6 7 C2.75791433 6.64950425 1.38472296 6.43778819 -0.8125 3.9375 C-1.4003125 2.9784375 -1.4003125 2.9784375 -2 2 C-1.34 2 -0.68 2 0 2 C0 1.34 0 0.68 0 0 Z " fill="#FFB285" transform="translate(232,471)"/>
<path d="M0 0 C2.475 0.495 2.475 0.495 5 1 C5.33 2.32 5.66 3.64 6 5 C4.35 5 2.7 5 1 5 C0.67 3.35 0.34 1.7 0 0 Z " fill="#FA8715" transform="translate(133,470)"/>
<path d="M0 0 C0.33 0 0.66 0 1 0 C1 2.64 1 5.28 1 8 C1.66 8 2.32 8 3 8 C3.33 10.31 3.66 12.62 4 15 C2 13.6875 2 13.6875 0 11 C-0.36089448 7.31144615 -0.22933459 3.6948351 0 0 Z " fill="#F78F3B" transform="translate(232,460)"/>
<path d="M0 0 C2.96052484 3.36423277 3.92289822 6.69159287 5 11 C4.34 11 3.68 11 3 11 C1.4921875 8.8125 1.4921875 8.8125 -0.125 6 C-0.66382813 5.071875 -1.20265625 4.14375 -1.7578125 3.1875 C-2.16773438 2.465625 -2.57765625 1.74375 -3 1 C-2.01 0.67 -1.02 0.34 0 0 Z " fill="#F58830" transform="translate(320,465)"/>
<path d="M0 0 C1.90389849 2.85584773 2.69462177 4.9311762 3.625 8.1875 C4.01558594 9.53908203 4.01558594 9.53908203 4.4140625 10.91796875 C4.60742188 11.60503906 4.80078125 12.29210937 5 13 C2.53686261 11.17251097 1.16571382 9.77023784 0.51171875 6.73046875 C0.27481707 4.48520654 0.09638651 2.25544422 0 0 Z " fill="#FEE9CA" transform="translate(49,456)"/>
<path d="M0 0 C0.66 0 1.32 0 2 0 C1.83628906 0.53109375 1.67257812 1.0621875 1.50390625 1.609375 C0.88643623 4.53876764 0.90498075 7.25822936 0.9375 10.25 C0.94652344 11.32765625 0.95554687 12.4053125 0.96484375 13.515625 C0.97644531 14.33546875 0.98804688 15.1553125 1 16 C0.34 16 -0.32 16 -1 16 C-1.02692484 13.70839681 -1.04636124 11.41670454 -1.0625 9.125 C-1.07410156 7.84882813 -1.08570313 6.57265625 -1.09765625 5.2578125 C-1 2 -1 2 0 0 Z " fill="#F78C2F" transform="translate(278,456)"/>
<path d="M0 0 C0.66 0 1.32 0 2 0 C0.79157144 4.43090471 -0.51668565 6.98112756 -4 10 C-4 8.35 -4 6.7 -4 5 C-2.68 4.34 -1.36 3.68 0 3 C0 2.01 0 1.02 0 0 Z " fill="#F68B36" transform="translate(223,394)"/>
<path d="M0 0 C2.40034102 3.60051153 4.32187705 6.96144535 3.625 11.375 C3.41875 11.91125 3.2125 12.4475 3 13 C0.41073669 10.41073669 0.62601957 8.97294721 0.375 5.375 C0.30023438 4.37210937 0.22546875 3.36921875 0.1484375 2.3359375 C0.09945313 1.56507813 0.05046875 0.79421875 0 0 Z " fill="#FEAE80" transform="translate(464,314)"/>
<path d="M0 0 C0.66 0 1.32 0 2 0 C2 0.99 2 1.98 2 3 C2.66 3 3.32 3 4 3 C5.42258812 6.82320557 6.24042276 9.91281305 6 14 C4.06061181 11.09091772 3.03225043 8.59137621 1.875 5.3125 C1.52179688 4.31863281 1.16859375 3.32476562 0.8046875 2.30078125 C0.53914062 1.54152344 0.27359375 0.78226562 0 0 Z " fill="#F7882F" transform="translate(249,301)"/>
<path d="M0 0 C-4 2 -8 4 -12 6 C-12 4.68 -12 3.36 -12 2 C-10.75579353 1.4654744 -9.50429064 0.94791389 -8.25 0.4375 C-7.55390625 0.14746094 -6.8578125 -0.14257812 -6.140625 -0.44140625 C-3.69987216 -1.07831803 -2.3596345 -0.80248831 0 0 Z " fill="#FEB38D" transform="translate(351,268)"/>
<path d="M0 0 C2.0625 2.3125 2.0625 2.3125 4 5 C3.67 5.99 3.34 6.98 3 8 C2.34 8 1.68 8 1 8 C0.67 8.99 0.34 9.98 0 11 C0 7.37 0 3.74 0 0 Z " fill="#F98729" transform="translate(250,466)"/>
<path d="M0 0 C0.66 0 1.32 0 2 0 C0.6190998 3.33717549 -0.8201238 5.22301036 -4 7 C-6.25 6.6875 -6.25 6.6875 -8 6 C-2.25 2 -2.25 2 0 2 C0 1.34 0 0.68 0 0 Z " fill="#FEAF85" transform="translate(416,416)"/>
<path d="M0 0 C1.32 0 2.64 0 4 0 C4 0.66 4 1.32 4 2 C5.32 1.67 6.64 1.34 8 1 C8.66 2.65 9.32 4.3 10 6 C6.00499382 4.6302836 3.19990508 2.74277578 0 0 Z " fill="#EF9241" transform="translate(156,595)"/>
<path d="M0 0 C0.66 0.33 1.32 0.66 2 1 C0.02 3.97 -1.96 6.94 -4 10 C-5 6 -5 6 -3.6875 3.75 C-3.130625 3.1725 -2.57375 2.595 -2 2 C-1.34 2 -0.68 2 0 2 C0 1.34 0 0.68 0 0 Z " fill="#EE913E" transform="translate(529,513)"/>
<path d="M0 0 C2.29013653 3.4352048 2.17842973 4.985331 2 9 C1.01 9.495 1.01 9.495 0 10 C-0.19412181 8.52168779 -0.38012131 7.04230684 -0.5625 5.5625 C-0.66691406 4.73878906 -0.77132813 3.91507812 -0.87890625 3.06640625 C-0.91886719 2.38449219 -0.95882813 1.70257813 -1 1 C-0.67 0.67 -0.34 0.34 0 0 Z " fill="#FFB99C" transform="translate(346,459)"/>
<path d="M0 0 C1.41750563 0.11509661 2.83401169 0.24253658 4.25 0.375 C5.03890625 0.44460938 5.8278125 0.51421875 6.640625 0.5859375 C9.085877 1.01507113 10.84836903 1.78600638 13 3 C13 3.66 13 4.32 13 5 C11.39402675 4.54803755 9.79027492 4.08817673 8.1875 3.625 C6.84751953 3.24214844 6.84751953 3.24214844 5.48046875 2.8515625 C3 2 3 2 0 0 Z " fill="#FDAE81" transform="translate(393,264)"/>
<path d="M0 0 C0.33 0.66 0.66 1.32 1 2 C-0.88020043 5.76040087 -5.34726109 7.19310144 -9 9 C-8.06725891 7.87105124 -7.12859878 6.74699124 -6.1875 5.625 C-5.66542969 4.99851563 -5.14335938 4.37203125 -4.60546875 3.7265625 C-3 2 -3 2 0 0 Z " fill="#ED9240" transform="translate(125,173)"/>
<path d="M0 0 C0.53625 0.391875 1.0725 0.78375 1.625 1.1875 C-1.125 2.8125 -1.125 2.8125 -4.375 4.1875 C-6.75 3.375 -6.75 3.375 -8.375 2.1875 C-2.95961538 -1.0125 -2.95961538 -1.0125 0 0 Z " fill="#FDAA73" transform="translate(319.375,463.8125)"/>
<path d="M0 0 C2.64752004 2.57784846 4.94432065 4.91648098 7 8 C6.01 8.495 6.01 8.495 5 9 C1.7457985 6.16569547 0.4793247 4.31392226 0 0 Z " fill="#FEB48E" transform="translate(402,434)"/>
<path d="M0 0 C0.33 1.32 0.66 2.64 1 4 C-0.98 5.32 -2.96 6.64 -5 8 C-5.66 7.67 -6.32 7.34 -7 7 C-4.69 4.69 -2.38 2.38 0 0 Z " fill="#F79248" transform="translate(452,400)"/>
<path d="M0 0 C0.66 0 1.32 0 2 0 C0.84414715 3.91211733 -0.35534962 6.8745041 -3 10 C-3.3636198 5.75776898 -2.5393228 3.41831915 0 0 Z " fill="#F88A36" transform="translate(440,380)"/>
<path d="M0 0 C1.31223496 3.93670488 0.24296256 6.12488144 -1 10 C-1.33 10 -1.66 10 -2 10 C-2.1953125 3.9453125 -2.1953125 3.9453125 -2 2 C-1.34 1.34 -0.68 0.68 0 0 Z " fill="#FEB9A2" transform="translate(281,459)"/>
<path d="M0 0 C0.66 0 1.32 0 2 0 C1.42655063 2.86724686 1.1385485 3.8614515 -1 6 C-1.99 5.67 -2.98 5.34 -4 5 C-2.71937515 3.2925002 -1.38232443 1.62626404 0 0 Z " fill="#FDB085" transform="translate(310,282)"/>
<path d="M0 0 C0.66 0.33 1.32 0.66 2 1 C0.87926138 1.83905565 -0.24674547 2.67107831 -1.375 3.5 C-2.00148438 3.9640625 -2.62796875 4.428125 -3.2734375 4.90625 C-5 6 -5 6 -7 6 C-7 5.01 -7 4.02 -7 3 C-4.69631264 1.93347808 -2.35981813 0.93578995 0 0 Z " fill="#F78A36" transform="translate(322,272)"/>
<path d="M0 0 C0 0.66 0 1.32 0 2 C-4.29 1.67 -8.58 1.34 -13 1 C-13 0.67 -13 0.34 -13 0 C-11.58456585 -0.19658808 -10.16755969 -0.38187546 -8.75 -0.5625 C-7.96109375 -0.66691406 -7.1721875 -0.77132813 -6.359375 -0.87890625 C-3.99467126 -1.00027349 -2.2488963 -0.69633257 0 0 Z " fill="#F78B35" transform="translate(402,259)"/>
<path d="M0 0 C-3.08888522 2.05925681 -3.70935927 2.2390374 -7.1875 2.125 C-9.0746875 2.063125 -9.0746875 2.063125 -11 2 C-7.00042393 -0.06874624 -4.43559483 -1.37656391 0 0 Z " fill="#FEEACB" transform="translate(387,628)"/>
<path d="M0 0 C-3.28463659 2.18975773 -6.20696275 2.99806563 -10 4 C-9.67 3.01 -9.34 2.02 -9 1 C-5.8035914 -0.06546953 -3.34252724 -0.07427838 0 0 Z " fill="#FFF7E8" transform="translate(396,625)"/>
<path d="M0 0 C0.99 0 1.98 0 3 0 C2.34 2.64 1.68 5.28 1 8 C0.34 8 -0.32 8 -1 8 C-0.67 5.36 -0.34 2.72 0 0 Z " fill="#FEA25B" transform="translate(337,469)"/>
<path d="M0 0 C-3.08888522 2.05925681 -3.70935927 2.2390374 -7.1875 2.125 C-9.0746875 2.063125 -9.0746875 2.063125 -11 2 C-6.98764085 -0.6749061 -4.6342454 -1.48957888 0 0 Z " fill="#FA9042" transform="translate(205,427)"/>
<path d="M0 0 C0.66 0.33 1.32 0.66 2 1 C-0.97 4.96 -0.97 4.96 -4 9 C-4.33 8.01 -4.66 7.02 -5 6 C-3.59554165 3.7363436 -1.8032087 1.9791315 0 0 Z " fill="#FEB793" transform="translate(244,395)"/>
<path d="M0 0 C1 3 1 3 0.22265625 5.04296875 C-0.16019531 5.75066406 -0.54304687 6.45835937 -0.9375 7.1875 C-1.31777344 7.90292969 -1.69804687 8.61835938 -2.08984375 9.35546875 C-2.54037109 10.16951172 -2.54037109 10.16951172 -3 11 C-4.3968009 6.80959731 -2.86445675 4.87233324 -1 1 C-0.67 0.67 -0.34 0.34 0 0 Z " fill="#FFB68F" transform="translate(250,384)"/>
<path d="M0 0 C0 0.99 0 1.98 0 3 C-1.96466413 4.06775224 -3.96855359 5.06553465 -6 6 C-6.66 5.67 -7.32 5.34 -8 5 C-2.25 0 -2.25 0 0 0 Z " fill="#FFB287" transform="translate(320,276)"/>
<path d="M0 0 C0.33 0 0.66 0 1 0 C1.25 3.3125 1.25 3.3125 1 7 C-0.32 7.99 -1.64 8.98 -3 10 C-2.01 6.7 -1.02 3.4 0 0 Z " fill="#EF9546" transform="translate(56,269)"/>
<path d="M0 0 C5.875 3.75 5.875 3.75 7 6 C4.69 5.34 2.38 4.68 0 4 C0 2.68 0 1.36 0 0 Z " fill="#F08D36" transform="translate(466,160)"/>
<path d="M0 0 C0.66 0.33 1.32 0.66 2 1 C-0.83430453 4.2542015 -2.68607774 5.5206753 -7 6 C-4.83312509 3.72478134 -2.54379491 1.84205838 0 0 Z " fill="#FEECD4" transform="translate(458,590)"/>
<path d="M0 0 C2.66735273 2.48952921 4.55746343 4.63408134 6 8 C5.01 8 4.02 8 3 8 C0.89229241 5.11165997 0 3.61537605 0 0 Z " fill="#FDE7CB" transform="translate(86,528)"/>
<path d="M0 0 C0.66 0 1.32 0 2 0 C0.90931332 3.77545388 0.0916909 6.47043472 -3 9 C-2.30058404 5.85262818 -1.23921302 2.97411124 0 0 Z " fill="#ED9445" transform="translate(541,491)"/>
<path d="M0 0 C1.5 1.375 1.5 1.375 3 3 C3 3.66 3 4.32 3 5 C3.66 5.33 4.32 5.66 5 6 C2.625 6.1875 2.625 6.1875 0 6 C-0.66 5.01 -1.32 4.02 -2 3 C-1.34 2.67 -0.68 2.34 0 2 C0 1.34 0 0.68 0 0 Z " fill="#FDA870" transform="translate(320,471)"/>
<path d="M0 0 C0.33 0.66 0.66 1.32 1 2 C1.66 2.33 2.32 2.66 3 3 C1.6875 4.5 1.6875 4.5 0 6 C-0.99 6 -1.98 6 -3 6 C-2 4 -1 2 0 0 Z " fill="#FEB185" transform="translate(299,470)"/>
<path d="M0 0 C2.0625 0.4375 2.0625 0.4375 4 1 C3.01 2.485 3.01 2.485 2 4 C2.66 4.33 3.32 4.66 4 5 C3.01 5 2.02 5 1 5 C0.34 3.68 -0.32 2.36 -1 1 C-0.67 0.67 -0.34 0.34 0 0 Z " fill="#F38C36" transform="translate(403,431)"/>
<path d="M0 0 C4.875 3.625 4.875 3.625 6 7 C4.68 7 3.36 7 2 7 C1.34 4.69 0.68 2.38 0 0 Z " fill="#F58E3F" transform="translate(298,397)"/>
<path d="M0 0 C1.24546405 2.49092811 0.7767578 3.41080733 0 6 C-1.65 6.33 -3.3 6.66 -5 7 C-1.125 1.125 -1.125 1.125 0 0 Z " fill="#F49143" transform="translate(244,398)"/>
<path d="M0 0 C0.99 0.33 1.98 0.66 3 1 C3.73046875 3.06640625 3.73046875 3.06640625 4.1875 5.5625 C4.34605469 6.38878906 4.50460937 7.21507812 4.66796875 8.06640625 C4.77753906 8.70449219 4.88710938 9.34257812 5 10 C2.35534962 6.8745041 1.15585285 3.91211733 0 0 Z " fill="#FFB58F" transform="translate(289,378)"/>
<path d="M0 0 C0.33 0 0.66 0 1 0 C1.28571429 8.57142857 1.28571429 8.57142857 -1 12 C-2.36884358 7.48281619 -1.47075246 4.41225737 0 0 Z " fill="#F78932" transform="translate(233,362)"/>
<path d="M0 0 C6.875 3.75 6.875 3.75 8 6 C5.69 5.34 3.38 4.68 1 4 C0.67 2.68 0.34 1.36 0 0 Z " fill="#F28A2F" transform="translate(410,272)"/>
<path d="M0 0 C2.97 0.99 5.94 1.98 9 3 C9 3.33 9 3.66 9 4 C6.69 4 4.38 4 2 4 C1.34 2.68 0.68 1.36 0 0 Z " fill="#F08C38" transform="translate(396,121)"/>
</svg>
